<svg width="568" height="758" viewBox="0 0 568 758" fill="none" xmlns="http://www.w3.org/2000/svg">
<path d="M0 9.99998C0 4.47713 4.47715 0 10 0H530C541.046 0 550 8.95431 550 20V680C550 691.046 541.046 700 530 700H9.99999C4.47714 700 0 695.523 0 690V9.99998Z" fill="#759DBD"/>
<path fill-rule="evenodd" clip-rule="evenodd" d="M86 700H32V752.985C32 755.602 34.0113 757.75 36.5727 757.967L59.25 747.605L81.8202 757.918C84.1914 757.527 86 755.467 86 752.985V700Z" fill="#DD5375"/>
<path d="M550 221H563C565.761 221 568 223.239 568 226V322C568 324.761 565.761 327 563 327H550V221Z" fill="#AEB87A"/>
<path d="M550 45H563C565.761 45 568 47.2386 568 50V146C568 148.761 565.761 151 563 151H550V45Z" fill="#DD5375"/>
</svg>
