<svg width="420" height="252" viewBox="0 0 420 252" fill="none" xmlns="http://www.w3.org/2000/svg">
<rect width="420" height="252" rx="2.52" fill="#FFEAE5"/>
<path fill-rule="evenodd" clip-rule="evenodd" d="M287.28 235.2H280.56V223.442C280.56 220.216 279.137 218.416 276.585 218.416C273.808 218.416 272.16 220.292 272.16 223.442V235.2H265.44V213.36H272.16V215.816C272.16 215.816 274.268 212.116 279.019 212.116C283.772 212.116 287.28 215.017 287.28 221.018V235.2ZM257.783 209.867C255.516 209.867 253.68 208.016 253.68 205.733C253.68 203.451 255.516 201.6 257.783 201.6C260.047 201.6 261.883 203.451 261.883 205.733C261.885 208.016 260.047 209.867 257.783 209.867ZM253.68 235.2H262.08V213.36H253.68V235.2Z" fill="#4D3926"/>
<path fill-rule="evenodd" clip-rule="evenodd" d="M329.28 201.6C338.559 201.6 346.08 209.311 346.08 218.825C346.08 226.434 341.272 232.888 334.601 235.168C333.749 235.338 333.446 234.8 333.446 234.341C333.446 233.773 333.467 231.919 333.467 229.614C333.467 228.008 332.929 226.959 332.326 226.425C336.067 225.998 339.998 224.542 339.998 217.926C339.998 216.044 339.347 214.509 338.268 213.303C338.443 212.867 339.019 211.115 338.103 208.743C338.103 208.743 336.696 208.282 333.488 210.509C332.146 210.128 330.708 209.936 329.28 209.929C327.852 209.936 326.416 210.128 325.075 210.509C321.865 208.282 320.453 208.743 320.453 208.743C319.541 211.115 320.117 212.867 320.29 213.303C319.217 214.509 318.56 216.044 318.56 217.926C318.56 224.525 322.483 226.004 326.214 226.439C325.734 226.869 325.298 227.628 325.147 228.742C324.19 229.182 321.757 229.944 320.258 227.311C320.258 227.311 319.37 225.656 317.683 225.535C317.683 225.535 316.045 225.513 317.569 226.582C317.569 226.582 318.669 227.111 319.434 229.102C319.434 229.102 320.42 232.176 325.093 231.135C325.102 232.574 325.117 233.931 325.117 234.341C325.117 234.796 324.808 235.329 323.97 235.17C317.293 232.893 312.48 226.435 312.48 218.825C312.48 209.311 320.003 201.6 329.28 201.6Z" fill="#4D3926"/>
<path fill-rule="evenodd" clip-rule="evenodd" d="M388.08 227.564C393.141 227.564 397.244 223.461 397.244 218.4C397.244 213.339 393.141 209.236 388.08 209.236C383.019 209.236 378.916 213.339 378.916 218.4C378.916 223.461 383.019 227.564 388.08 227.564ZM388.08 224.509C391.454 224.509 394.189 221.774 394.189 218.4C394.189 215.026 391.454 212.291 388.08 212.291C384.706 212.291 381.971 215.026 381.971 218.4C381.971 221.774 384.706 224.509 388.08 224.509Z" fill="#4D3926"/>
<path d="M397.244 207.709C396.4 207.709 395.716 208.393 395.716 209.236C395.716 210.08 396.4 210.764 397.244 210.764C398.087 210.764 398.771 210.08 398.771 209.236C398.771 208.393 398.087 207.709 397.244 207.709Z" fill="#4D3926"/>
<path fill-rule="evenodd" clip-rule="evenodd" d="M372.279 206.603C371.28 208.564 371.28 211.13 371.28 216.262V220.538C371.28 225.67 371.28 228.236 372.279 230.197C373.157 231.921 374.559 233.323 376.283 234.201C378.244 235.2 380.81 235.2 385.942 235.2H390.218C395.35 235.2 397.916 235.2 399.877 234.201C401.601 233.323 403.003 231.921 403.881 230.197C404.88 228.236 404.88 225.67 404.88 220.538V216.262C404.88 211.13 404.88 208.564 403.881 206.603C403.003 204.879 401.601 203.477 399.877 202.599C397.916 201.6 395.35 201.6 390.218 201.6H385.942C380.81 201.6 378.244 201.6 376.283 202.599C374.559 203.477 373.157 204.879 372.279 206.603ZM390.218 204.655H385.942C383.325 204.655 381.547 204.657 380.172 204.769C378.833 204.879 378.148 205.077 377.67 205.32C376.521 205.906 375.586 206.841 375 207.99C374.757 208.468 374.559 209.153 374.449 210.492C374.337 211.867 374.335 213.645 374.335 216.262V220.538C374.335 223.155 374.337 224.933 374.449 226.308C374.559 227.647 374.757 228.332 375 228.81C375.586 229.959 376.521 230.894 377.67 231.48C378.148 231.723 378.833 231.921 380.172 232.031C381.547 232.143 383.325 232.145 385.942 232.145H390.218C392.835 232.145 394.613 232.143 395.988 232.031C397.327 231.921 398.012 231.723 398.49 231.48C399.639 230.894 400.574 229.959 401.16 228.81C401.403 228.332 401.601 227.647 401.711 226.308C401.823 224.933 401.825 223.155 401.825 220.538V216.262C401.825 213.645 401.823 211.867 401.711 210.492C401.601 209.153 401.403 208.468 401.16 207.99C400.574 206.841 399.639 205.906 398.49 205.32C398.012 205.077 397.327 204.879 395.988 204.769C394.613 204.657 392.835 204.655 390.218 204.655Z" fill="#4D3926"/>
<path d="M252 168H0V193.2H226.8L252 168Z" fill="#E3CCC7"/>
<path d="M36.6441 46.4C36.335 46.4 35.9654 46.2925 35.5353 46.0774C35.1187 45.849 34.7491 45.5802 34.4265 45.271C34.1174 44.9619 33.9629 44.7066 33.9629 44.505C33.9494 44.2899 34.0099 43.8397 34.1443 43.1542C34.2921 42.4554 34.3862 42.0051 34.4265 41.8035C34.4803 41.5347 34.5811 41.0442 34.7289 40.3318C34.8768 39.6061 34.9977 38.9341 35.0918 38.3158L35.2531 37.3683C35.5085 35.863 35.7437 34.64 35.9587 33.6992C36.1872 32.7584 36.4157 32.288 36.6441 32.288C36.8726 32.288 37.1817 32.3821 37.5715 32.5702C37.9747 32.7584 38.351 33.0003 38.7005 33.296C39.0499 33.5782 39.2851 33.847 39.4061 34.1024C39.6211 34.5862 39.9033 35.6211 40.2528 37.207C40.4947 38.3091 40.6761 39.0685 40.7971 39.4851C41.375 38.6115 42.1142 37.2742 43.0147 35.4733C43.5926 34.3309 44.0294 33.5178 44.3251 33.0339C44.6342 32.5366 44.9097 32.288 45.1517 32.288C45.407 32.288 45.7497 32.4022 46.1798 32.6307C46.6233 32.8592 47.0064 33.128 47.3289 33.4371C47.6649 33.7462 47.8329 34.015 47.8329 34.2435C47.8329 34.4317 47.7523 34.9626 47.591 35.8362C47.4297 36.6963 47.3289 37.2339 47.2886 37.449L46.7645 40.2915C46.6301 41.0845 46.4889 42.1261 46.3411 43.4163C46.2067 44.5184 46.0857 45.2912 45.9782 45.7347C45.8841 46.1782 45.7296 46.4 45.5145 46.4C45.2054 46.4 44.8358 46.2925 44.4057 46.0774C43.9891 45.849 43.6195 45.5802 43.2969 45.271C42.9878 44.9619 42.8333 44.7066 42.8333 44.505C42.8198 44.3302 42.8669 43.9606 42.9744 43.3962C43.0953 42.8182 43.2297 42.1664 43.3776 41.4406C43.4985 40.8627 43.5657 40.5334 43.5792 40.4528L44.3049 38.215L44.0227 38.1142L43.8211 38.5174C43.2969 39.5926 42.8736 40.4326 42.551 41.0374C42.2419 41.6288 41.9865 42.0522 41.7849 42.3075C41.6505 42.4688 41.4086 42.6032 41.0592 42.7107C40.7097 42.8048 40.367 42.8518 40.031 42.8518C39.6816 42.8518 39.4464 42.7914 39.3254 42.6704C39.2045 42.5629 39.0969 42.3411 39.0029 42.0051C38.9222 41.6557 38.808 41.1181 38.6601 40.3923C38.6333 40.2445 38.5593 39.8883 38.4384 39.3238C38.3174 38.7459 38.183 38.2218 38.0352 37.7514L37.8941 40.2915C37.7597 41.0845 37.6185 42.1261 37.4707 43.4163C37.3363 44.5184 37.2153 45.2912 37.1078 45.7347C37.0137 46.1782 36.8592 46.4 36.6441 46.4ZM57.5296 43.4365C58.3494 43.0333 59.0416 42.6032 59.6061 42.1462C60.1974 42.3478 60.6342 42.6301 60.9165 42.993C61.2121 43.3424 61.36 43.7456 61.36 44.2026C61.36 44.5251 61.1315 44.8611 60.6745 45.2106C60.2176 45.5466 59.6733 45.8288 59.0416 46.0573C58.4099 46.2858 57.8723 46.4 57.4288 46.4C57.1197 46.4 56.7635 46.2858 56.3603 46.0573C55.9705 45.8288 55.6278 45.56 55.3321 45.2509C55.0499 44.9418 54.9088 44.6998 54.9088 44.5251C54.9088 44.3907 54.9625 44.2093 55.0701 43.9808C55.191 43.7523 55.3187 43.5171 55.4531 43.2752C55.5875 43.0333 55.6749 42.872 55.7152 42.7914L55.2112 42.5091C54.4989 43.6784 53.8134 44.6192 53.1549 45.3315C52.5097 46.0438 51.8713 46.4 51.2397 46.4C50.8096 46.4 50.3526 46.2118 49.8688 45.8355C49.3984 45.4592 48.9952 45.0022 48.6592 44.4646C48.3366 43.927 48.1753 43.4499 48.1753 43.0333C48.1753 41.8371 48.424 40.6141 48.9213 39.3642C49.4185 38.1142 50.1107 37.0794 50.9977 36.2595C51.8982 35.4397 52.9129 35.0298 54.0419 35.0298C54.4451 35.0298 54.855 35.2112 55.2717 35.5741C55.6883 35.937 55.9571 36.3066 56.0781 36.6829C56.1453 36.3872 56.2393 36.1318 56.3603 35.9168C56.4947 35.6883 56.6358 35.5741 56.7837 35.5741C57.1331 35.5741 57.5161 35.7018 57.9328 35.9571C58.3629 36.199 58.7257 36.488 59.0214 36.824C59.3171 37.1466 59.4649 37.4019 59.4649 37.5901C59.4515 37.8454 59.344 38.2688 59.1424 38.8602C58.9542 39.4515 58.6451 40.352 58.215 41.5616C57.9597 42.2202 57.7312 42.8451 57.5296 43.4365ZM51.3405 43.5978C52.4291 42.9258 53.3766 42.0992 54.183 41.1181C54.9894 40.1235 55.5405 39.0282 55.8361 37.832C55.4733 37.6707 55.1305 37.5901 54.808 37.5901C54.1763 37.5901 53.6118 37.8723 53.1145 38.4368C52.6173 39.0013 52.2208 39.7405 51.9251 40.6544C51.6294 41.5683 51.4345 42.5494 51.3405 43.5978ZM69.5892 43.1744C68.7559 43.8464 67.889 44.4445 66.9886 44.9686C66.0881 45.4928 65.3959 45.7549 64.9121 45.7549C64.7105 45.7549 64.4417 45.6474 64.1057 45.4323C63.7831 45.2038 63.4942 44.935 63.2388 44.6259C62.9969 44.3168 62.8759 44.0346 62.8759 43.7792C62.8759 43.5373 62.9297 43.2214 63.0372 42.8317C63.1582 42.4419 63.3463 41.8774 63.6017 41.1382C63.978 40.0899 64.1662 39.4381 64.1662 39.1827C64.1662 39.0752 64.099 38.961 63.9646 38.84C63.8436 38.7056 63.6554 38.5443 63.4001 38.3562C63.1044 38.1277 62.8826 37.9462 62.7348 37.8118C62.6004 37.6774 62.5332 37.5363 62.5332 37.3885C62.5332 37.1062 62.6609 36.777 62.9162 36.4006C63.185 36.0243 63.4942 35.7018 63.8436 35.433C64.2065 35.1642 64.5156 35.0298 64.771 35.0298C65.0532 35.0298 65.3758 35.1574 65.7386 35.4128C66.115 35.6682 66.4375 35.9638 66.7063 36.2998C66.9886 36.6224 67.1297 36.871 67.1297 37.0458C67.1297 37.7984 67.0222 38.6989 66.8071 39.7472C66.6055 40.7821 66.3098 41.8438 65.9201 42.9325C67.0087 42.368 68.0974 41.6422 69.186 40.7552C69.3607 39.0349 69.5287 37.7446 69.69 36.8845C69.8513 36.0109 70.0798 35.5741 70.3754 35.5741C70.577 35.5741 70.8794 35.7152 71.2826 35.9974C71.6993 36.2662 72.0689 36.5754 72.3914 36.9248C72.7274 37.2608 72.8954 37.5229 72.8954 37.711C72.8954 37.9933 72.6871 39.2768 72.2705 41.5616C71.8538 43.833 71.417 46.017 70.9601 48.1136C70.5031 50.2237 70.1738 51.44 69.9722 51.7626C69.6766 52.2464 69.1927 52.6698 68.5207 53.0326C67.8487 53.3955 67.1969 53.577 66.5652 53.577C66.0276 53.577 65.4497 53.3955 64.8314 53.0326C64.2266 52.6698 63.7159 52.2195 63.2993 51.6819C62.8961 51.1578 62.6945 50.6739 62.6945 50.2304C62.6945 49.639 63.3665 48.7722 64.7105 47.6298C66.0545 46.5008 67.8017 45.1971 69.9521 43.7187L69.5892 43.1744ZM69.2666 46.4605C66.9012 48.3152 65.7185 49.6054 65.7185 50.3312C65.7185 50.5866 65.8529 50.8218 66.1217 51.0368C66.3905 51.2518 66.7265 51.393 67.1297 51.4602C67.5732 50.8285 67.9428 50.143 68.2385 49.4038C68.5476 48.6781 68.8903 47.697 69.2666 46.4605ZM76.6923 46.4C76.3429 46.4 75.9598 46.2723 75.5432 46.017C75.14 45.7482 74.7973 45.4458 74.515 45.1098C74.2328 44.7603 74.0917 44.4781 74.0917 44.263C74.0917 44.048 74.1521 43.7389 74.2731 43.3357C74.4075 42.9325 74.5419 42.5293 74.6763 42.1261C74.8241 41.7229 74.9182 41.4675 74.9585 41.36C75.1333 40.8896 75.2878 40.4461 75.4222 40.0294C75.5701 39.6128 75.644 39.3306 75.644 39.1827C75.644 39.0752 75.5768 38.961 75.4424 38.84C75.3214 38.7056 75.1333 38.5443 74.8779 38.3562C74.5822 38.1277 74.3605 37.9462 74.2126 37.8118C74.0782 37.6774 74.011 37.5363 74.011 37.3885C74.011 37.1062 74.1387 36.777 74.3941 36.4006C74.6629 36.0243 74.972 35.7018 75.3214 35.433C75.6843 35.1642 75.9934 35.0298 76.2488 35.0298C76.531 35.0298 76.8536 35.1574 77.2165 35.4128C77.5928 35.6682 77.9153 35.9638 78.1841 36.2998C78.4664 36.6224 78.6075 36.871 78.6075 37.0458C78.6075 37.879 78.4664 38.8803 78.1841 40.0496C77.9019 41.2189 77.539 42.3814 77.0955 43.5373C77.9825 42.7981 78.7755 41.9782 79.4744 41.0778C80.1733 40.1773 80.6638 39.3709 80.9461 38.6586C80.9729 37.785 81.0737 37.0525 81.2485 36.4611C81.4366 35.8698 81.6517 35.5741 81.8936 35.5741C82.243 35.5741 82.6261 35.7018 83.0427 35.9571C83.4728 36.199 83.8357 36.488 84.1313 36.824C84.427 37.1466 84.5749 37.4019 84.5749 37.5901C84.5614 37.8723 84.4337 38.4032 84.1918 39.1827C83.9499 39.9488 83.6139 40.9366 83.1838 42.1462C82.9285 42.8989 82.7806 43.329 82.7403 43.4365C83.1301 43.2618 83.4795 43.0803 83.7886 42.8922C84.1112 42.6906 84.4472 42.4419 84.7966 42.1462C85.388 42.3478 85.8248 42.6301 86.107 42.993C86.4027 43.3424 86.5505 43.7456 86.5505 44.2026C86.5505 44.5251 86.3221 44.8611 85.8651 45.2106C85.4081 45.5466 84.8638 45.8288 84.2321 46.0573C83.6005 46.2858 83.0629 46.4 82.6193 46.4C82.3371 46.4 82.0011 46.2858 81.6113 46.0573C81.2216 45.8154 80.8721 45.5466 80.563 45.2509C80.2673 44.9418 80.1195 44.7133 80.1195 44.5654C80.1195 44.4176 80.1665 44.2362 80.2606 44.0211C80.3681 43.8061 80.4824 43.5776 80.6033 43.3357C80.7377 43.0803 80.8385 42.8989 80.9057 42.7914L80.4017 42.5091C79.6625 43.8666 79.0241 44.8544 78.4865 45.4726C77.9624 46.0909 77.3643 46.4 76.6923 46.4ZM90.7778 46.4C90.415 46.4 90.0185 46.2858 89.5884 46.0573C89.1583 45.8154 88.7887 45.5398 88.4796 45.2307C88.1705 44.9082 88.0159 44.6394 88.0159 44.4243C88.0159 44.169 88.0697 43.8397 88.1772 43.4365C88.2847 43.0198 88.446 42.4822 88.661 41.8237C88.8761 41.1382 89.0374 40.5939 89.1449 40.1907C89.2524 39.7741 89.3062 39.4381 89.3062 39.1827C89.3062 39.0752 89.2457 38.961 89.1247 38.84C89.0038 38.719 88.8156 38.5578 88.5602 38.3562C88.2646 38.1142 88.0495 37.9261 87.9151 37.7917C87.7807 37.6573 87.7135 37.5229 87.7135 37.3885C87.7135 37.1062 87.8479 36.777 88.1167 36.4006C88.3855 36.0243 88.7014 35.7018 89.0642 35.433C89.4271 35.1642 89.7362 35.0298 89.9916 35.0298C90.2738 35.0298 90.5964 35.1574 90.9593 35.4128C91.3222 35.6682 91.638 35.9638 91.9068 36.2998C92.1756 36.6224 92.31 36.871 92.31 37.0458C92.31 37.5565 92.2092 38.2285 92.0076 39.0618L92.2495 39.1827C92.5586 38.6854 92.8946 38.0941 93.2575 37.4086C93.6338 36.7098 93.8623 36.2797 93.943 36.1184L94.326 35.3926C95.2534 35.3658 95.9455 35.5338 96.4025 35.8966C96.8594 36.2595 97.0879 36.7434 97.0879 37.3482C97.0879 37.9395 96.893 38.5309 96.5033 39.1222C95.5356 39.4448 94.709 39.7674 94.0236 40.0899C93.3516 40.399 92.6729 40.7686 91.9874 41.1987C91.9471 42.6906 91.8262 43.9338 91.6246 44.9283C91.4364 45.9094 91.1542 46.4 90.7778 46.4ZM109.588 37.3078C109.696 36.6358 109.75 36.0982 109.75 35.695C109.75 35.4128 109.723 35.191 109.669 35.0298C109.629 34.8685 109.575 34.7878 109.508 34.7878C109.306 34.7878 109.071 34.9558 108.802 35.2918C108.547 35.6278 108.325 36.031 108.137 36.5014C107.962 36.9584 107.875 37.3683 107.875 37.7312C107.875 38.1882 108.097 38.6518 108.54 39.1222C108.997 39.5792 109.662 40.1437 110.536 40.8157C111.194 41.2995 111.685 41.7027 112.008 42.0253C112.33 42.3344 112.498 42.6166 112.512 42.872C112.525 43.4365 112.229 43.9942 111.625 44.5453C111.02 45.0829 110.26 45.5264 109.346 45.8758C108.446 46.2253 107.606 46.4 106.826 46.4C106.222 46.4 105.597 46.2522 104.952 45.9565C104.306 45.6474 103.769 45.2912 103.339 44.888C102.909 44.4714 102.687 44.1085 102.673 43.7994C102.647 43.208 102.841 42.7309 103.258 42.368C103.675 41.9917 104.233 41.8035 104.931 41.8035C105.281 41.8035 105.637 41.8506 106 41.9446C106.161 42.8317 106.302 43.4701 106.423 43.8598C107.216 43.6582 108.076 43.3088 109.004 42.8115C106.007 40.5402 104.508 38.7661 104.508 37.4893C104.508 36.871 104.737 36.1318 105.193 35.2717C105.65 34.3981 106.255 33.6522 107.008 33.0339C107.761 32.4022 108.553 32.0864 109.387 32.0864C110.005 32.0864 110.603 32.2947 111.181 32.7114C111.759 33.128 112.229 33.6387 112.592 34.2435C112.955 34.8483 113.137 35.4128 113.137 35.937C113.137 36.4477 112.928 36.8576 112.512 37.1667C112.108 37.4624 111.604 37.6102 111 37.6102C110.529 37.6102 110.059 37.5094 109.588 37.3078ZM116.97 42.1664C116.929 43.2147 116.829 44.1824 116.667 45.0694C116.506 45.9565 116.284 46.4 116.002 46.4C115.666 46.4 115.276 46.2858 114.833 46.0573C114.389 45.8288 114.006 45.56 113.684 45.2509C113.375 44.9283 113.22 44.6528 113.22 44.4243C113.22 44.263 113.274 43.9875 113.381 43.5978C113.489 43.1946 113.616 42.751 113.764 42.2672C114.288 40.5469 114.698 39.008 114.994 37.6506C115.155 36.8979 115.296 36.1184 115.417 35.312C115.606 34.2368 115.767 33.4102 115.901 32.8323C116.036 32.2544 116.204 31.7706 116.405 31.3808C116.62 30.9776 116.882 30.776 117.192 30.776C117.42 30.776 117.756 30.9171 118.2 31.1994C118.656 31.4682 119.06 31.784 119.409 32.1469C119.759 32.4963 119.933 32.7853 119.933 33.0138C119.933 33.2154 119.859 33.4438 119.712 33.6992C119.577 33.9411 119.349 34.2906 119.026 34.7475C118.959 34.8416 118.831 35.0298 118.643 35.312C118.468 35.5942 118.341 35.8294 118.26 36.0176C118.099 36.4074 117.917 36.9046 117.716 37.5094C117.528 38.1142 117.366 38.7056 117.232 39.2835L117.595 39.4851C118.468 38.3024 119.228 37.3549 119.873 36.6426C120.531 35.9302 121.042 35.5741 121.405 35.5741C121.66 35.5741 121.969 35.7018 122.332 35.9571C122.695 36.2125 123.011 36.5082 123.28 36.8442C123.549 37.1667 123.683 37.4154 123.683 37.5901C123.67 37.832 123.589 38.1814 123.441 38.6384C123.307 39.0819 123.092 39.7069 122.796 40.5133C122.42 41.481 122.084 42.4285 121.788 43.3558C122.205 43.1946 122.554 43.0333 122.836 42.872C123.119 42.7107 123.448 42.489 123.824 42.2067C124.389 42.4486 124.799 42.751 125.054 43.1139C125.323 43.4768 125.444 43.9203 125.417 44.4445C125.417 44.767 125.168 45.0762 124.671 45.3718C124.187 45.6675 123.623 45.9162 122.977 46.1178C122.346 46.3059 121.842 46.4 121.465 46.4C121.156 46.4 120.8 46.279 120.397 46.0371C119.994 45.7952 119.644 45.5197 119.349 45.2106C119.053 44.888 118.912 44.6394 118.925 44.4646C118.925 44.3571 118.992 44.1018 119.127 43.6986C119.261 43.2819 119.349 42.9997 119.389 42.8518C119.644 42.0454 119.832 41.407 119.953 40.9366C120.088 40.4528 120.155 40.0966 120.155 39.8682C120.155 39.7069 120.121 39.6262 120.054 39.6262C119.759 39.6262 119.315 39.8816 118.724 40.3923C118.132 40.903 117.548 41.4944 116.97 42.1664ZM135.748 43.4365C136.568 43.0333 137.26 42.6032 137.825 42.1462C138.416 42.3478 138.853 42.6301 139.135 42.993C139.431 43.3424 139.578 43.7456 139.578 44.2026C139.578 44.5251 139.35 44.8611 138.893 45.2106C138.436 45.5466 137.892 45.8288 137.26 46.0573C136.628 46.2858 136.091 46.4 135.647 46.4C135.338 46.4 134.982 46.2858 134.579 46.0573C134.189 45.8288 133.846 45.56 133.551 45.2509C133.268 44.9418 133.127 44.6998 133.127 44.5251C133.127 44.3907 133.181 44.2093 133.289 43.9808C133.409 43.7523 133.537 43.5171 133.672 43.2752C133.806 43.0333 133.893 42.872 133.934 42.7914L133.43 42.5091C132.717 43.6784 132.032 44.6192 131.373 45.3315C130.728 46.0438 130.09 46.4 129.458 46.4C129.028 46.4 128.571 46.2118 128.087 45.8355C127.617 45.4592 127.214 45.0022 126.878 44.4646C126.555 43.927 126.394 43.4499 126.394 43.0333C126.394 41.8371 126.642 40.6141 127.14 39.3642C127.637 38.1142 128.329 37.0794 129.216 36.2595C130.117 35.4397 131.131 35.0298 132.26 35.0298C132.664 35.0298 133.073 35.2112 133.49 35.5741C133.907 35.937 134.176 36.3066 134.297 36.6829C134.364 36.3872 134.458 36.1318 134.579 35.9168C134.713 35.6883 134.854 35.5741 135.002 35.5741C135.352 35.5741 135.735 35.7018 136.151 35.9571C136.581 36.199 136.944 36.488 137.24 36.824C137.536 37.1466 137.683 37.4019 137.683 37.5901C137.67 37.8454 137.562 38.2688 137.361 38.8602C137.173 39.4515 136.864 40.352 136.433 41.5616C136.178 42.2202 135.95 42.8451 135.748 43.4365ZM129.559 43.5978C130.648 42.9258 131.595 42.0992 132.401 41.1181C133.208 40.1235 133.759 39.0282 134.055 37.832C133.692 37.6707 133.349 37.5901 133.026 37.5901C132.395 37.5901 131.83 37.8723 131.333 38.4368C130.836 39.0013 130.439 39.7405 130.144 40.6544C129.848 41.5683 129.653 42.5494 129.559 43.5978ZM143.816 46.4C143.453 46.4 143.057 46.2858 142.627 46.0573C142.196 45.8154 141.827 45.5398 141.518 45.2307C141.209 44.9082 141.054 44.6394 141.054 44.4243C141.054 44.169 141.108 43.8397 141.215 43.4365C141.323 43.0198 141.484 42.4822 141.699 41.8237C141.914 41.1382 142.075 40.5939 142.183 40.1907C142.291 39.7741 142.344 39.4381 142.344 39.1827C142.344 39.0752 142.284 38.961 142.163 38.84C142.042 38.719 141.854 38.5578 141.598 38.3562C141.303 38.1142 141.088 37.9261 140.953 37.7917C140.819 37.6573 140.752 37.5229 140.752 37.3885C140.752 37.1062 140.886 36.777 141.155 36.4006C141.424 36.0243 141.739 35.7018 142.102 35.433C142.465 35.1642 142.774 35.0298 143.03 35.0298C143.312 35.0298 143.635 35.1574 143.997 35.4128C144.36 35.6682 144.676 35.9638 144.945 36.2998C145.214 36.6224 145.348 36.871 145.348 37.0458C145.348 37.5565 145.247 38.2285 145.046 39.0618L145.288 39.1827C145.597 38.6854 145.933 38.0941 146.296 37.4086C146.672 36.7098 146.9 36.2797 146.981 36.1184L147.364 35.3926C148.291 35.3658 148.984 35.5338 149.441 35.8966C149.898 36.2595 150.126 36.7434 150.126 37.3482C150.126 37.9395 149.931 38.5309 149.541 39.1222C148.574 39.4448 147.747 39.7674 147.062 40.0899C146.39 40.399 145.711 40.7686 145.026 41.1987C144.985 42.6906 144.864 43.9338 144.663 44.9283C144.475 45.9094 144.192 46.4 143.816 46.4ZM155.36 39.6262C156.421 38.2285 157.241 37.207 157.819 36.5619C158.397 35.9034 158.867 35.5741 159.23 35.5741C159.486 35.5741 159.781 35.6816 160.117 35.8966C160.467 36.1117 160.762 36.3603 161.004 36.6426C161.26 36.9114 161.381 37.1264 161.367 37.2877C161.354 37.6237 161.307 37.9866 161.226 38.3763C161.146 38.7661 161.031 39.2432 160.883 39.8077C161.999 38.383 162.873 37.3213 163.504 36.6224C164.149 35.9235 164.653 35.5741 165.016 35.5741C165.272 35.5741 165.581 35.7018 165.944 35.9571C166.306 36.2125 166.616 36.5082 166.871 36.8442C167.14 37.1667 167.274 37.4154 167.274 37.5901C167.261 37.8186 167.167 38.2083 166.992 38.7594C166.817 39.3104 166.569 40.0429 166.246 40.9568C165.816 42.1395 165.54 42.9392 165.419 43.3558C165.85 43.1274 166.179 42.9392 166.407 42.7914C166.649 42.6301 166.931 42.415 167.254 42.1462C167.845 42.3478 168.289 42.6301 168.585 42.993C168.88 43.3424 169.028 43.7456 169.028 44.2026C169.028 44.5251 168.793 44.8611 168.322 45.2106C167.866 45.5466 167.321 45.8288 166.69 46.0573C166.058 46.2858 165.52 46.4 165.077 46.4C164.781 46.4 164.432 46.279 164.028 46.0371C163.625 45.7952 163.276 45.5197 162.98 45.2106C162.684 44.888 162.537 44.6394 162.537 44.4646C162.537 44.3571 162.604 44.1018 162.738 43.6986C162.873 43.2819 162.96 42.9997 163 42.8518C163.256 42.0454 163.444 41.407 163.565 40.9366C163.699 40.4528 163.766 40.0966 163.766 39.8682C163.766 39.7069 163.733 39.6262 163.666 39.6262C163.101 39.6262 162.1 40.567 160.662 42.4486C160.554 42.8384 160.453 43.329 160.359 43.9203C160.198 44.7805 160.057 45.4122 159.936 45.8154C159.815 46.2051 159.654 46.4 159.452 46.4C159.17 46.4 158.82 46.279 158.404 46.0371C157.987 45.7952 157.624 45.5197 157.315 45.2106C157.006 44.888 156.851 44.6259 156.851 44.4243C156.851 44.2899 156.999 43.7658 157.295 42.8518C157.537 42.0858 157.725 41.4608 157.859 40.977C157.994 40.4797 158.061 40.1101 158.061 39.8682C158.061 39.7069 158.021 39.6262 157.94 39.6262C157.402 39.6262 156.401 40.567 154.936 42.4486C154.882 42.6637 154.822 42.9325 154.755 43.255C154.701 43.5776 154.661 43.8061 154.634 43.9405C154.486 44.7334 154.345 45.345 154.21 45.775C154.09 46.1917 153.928 46.4 153.727 46.4C153.377 46.4 152.981 46.2858 152.537 46.0573C152.107 45.8154 151.731 45.5398 151.408 45.2307C151.099 44.9082 150.945 44.6394 150.945 44.4243C150.945 44.1824 151.032 43.8262 151.207 43.3558C151.381 42.8854 151.643 42.2403 151.993 41.4205C152.262 40.7888 152.463 40.2982 152.598 39.9488C152.732 39.5859 152.799 39.3306 152.799 39.1827C152.799 39.0752 152.732 38.961 152.598 38.84C152.477 38.7056 152.289 38.5443 152.033 38.3562C151.738 38.1277 151.516 37.9462 151.368 37.8118C151.234 37.6774 151.166 37.5363 151.166 37.3885C151.166 37.1062 151.294 36.777 151.549 36.4006C151.818 36.0243 152.127 35.7018 152.477 35.433C152.84 35.1642 153.149 35.0298 153.404 35.0298C153.686 35.0298 154.009 35.1574 154.372 35.4128C154.748 35.6682 155.071 35.9638 155.339 36.2998C155.622 36.6224 155.763 36.871 155.763 37.0458C155.763 37.3683 155.722 37.7648 155.642 38.2352C155.575 38.7056 155.481 39.1693 155.36 39.6262ZM179.316 43.4365C180.136 43.0333 180.828 42.6032 181.393 42.1462C181.984 42.3478 182.421 42.6301 182.703 42.993C182.999 43.3424 183.147 43.7456 183.147 44.2026C183.147 44.5251 182.918 44.8611 182.461 45.2106C182.004 45.5466 181.46 45.8288 180.828 46.0573C180.197 46.2858 179.659 46.4 179.216 46.4C178.907 46.4 178.55 46.2858 178.147 46.0573C177.757 45.8288 177.415 45.56 177.119 45.2509C176.837 44.9418 176.696 44.6998 176.696 44.5251C176.696 44.3907 176.749 44.2093 176.857 43.9808C176.978 43.7523 177.106 43.5171 177.24 43.2752C177.374 43.0333 177.462 42.872 177.502 42.7914L176.998 42.5091C176.286 43.6784 175.6 44.6192 174.942 45.3315C174.297 46.0438 173.658 46.4 173.027 46.4C172.596 46.4 172.139 46.2118 171.656 45.8355C171.185 45.4592 170.782 45.0022 170.446 44.4646C170.123 43.927 169.962 43.4499 169.962 43.0333C169.962 41.8371 170.211 40.6141 170.708 39.3642C171.205 38.1142 171.898 37.0794 172.785 36.2595C173.685 35.4397 174.7 35.0298 175.829 35.0298C176.232 35.0298 176.642 35.2112 177.059 35.5741C177.475 35.937 177.744 36.3066 177.865 36.6829C177.932 36.3872 178.026 36.1318 178.147 35.9168C178.282 35.6883 178.423 35.5741 178.571 35.5741C178.92 35.5741 179.303 35.7018 179.72 35.9571C180.15 36.199 180.513 36.488 180.808 36.824C181.104 37.1466 181.252 37.4019 181.252 37.5901C181.238 37.8454 181.131 38.2688 180.929 38.8602C180.741 39.4515 180.432 40.352 180.002 41.5616C179.747 42.2202 179.518 42.8451 179.316 43.4365ZM173.127 43.5978C174.216 42.9258 175.163 42.0992 175.97 41.1181C176.776 40.1235 177.327 39.0282 177.623 37.832C177.26 37.6707 176.917 37.5901 176.595 37.5901C175.963 37.5901 175.399 37.8723 174.901 38.4368C174.404 39.0013 174.008 39.7405 173.712 40.6544C173.416 41.5683 173.221 42.5494 173.127 43.5978ZM35.2128 89.1786C34.944 89.0442 34.7289 88.8493 34.5677 88.5939C34.4198 88.3251 34.3459 88.0362 34.3459 87.727C34.3459 87.1894 34.5475 86.7392 34.9507 86.3763C35.7571 86.3763 36.5635 86.3562 37.3699 86.3158C38.1763 86.2755 38.976 86.2218 39.7689 86.1546C39.9974 86.1411 40.5149 86.1075 41.3213 86.0538C41.5766 86.2016 41.7648 86.4032 41.8857 86.6586C42.0201 86.9005 42.0873 87.1693 42.0873 87.465C42.0873 87.7338 42.0336 87.9958 41.9261 88.2512C41.8185 88.4931 41.6774 88.7014 41.5027 88.8762C39.863 88.903 37.7664 89.0038 35.2128 89.1786ZM46.6811 94.4C46.372 94.4 46.0024 94.2858 45.5723 94.0573C45.1557 93.8288 44.7861 93.56 44.4635 93.2509C44.1544 92.9418 43.9999 92.6864 43.9999 92.4848C43.9999 92.1354 44.3291 90.3546 44.9877 87.1424C45.0683 86.7661 45.196 86.1277 45.3707 85.2272C45.5589 84.3133 45.6866 83.6547 45.7538 83.2515L45.0079 83.3725C44.5912 82.9827 44.3829 82.4922 44.3829 81.9008C44.3829 81.4842 44.4971 81.0541 44.7256 80.6106C45.8143 80.3283 46.9163 80.1872 48.0319 80.1872C49.2146 80.1872 50.3099 80.3418 51.3179 80.6509C52.3394 80.96 53.1659 81.4371 53.7976 82.0822C54.4293 82.7139 54.7451 83.5069 54.7451 84.4611C54.7451 85.3078 54.4629 86.1142 53.8984 86.8803C53.3474 87.633 52.541 88.2579 51.4792 88.7552C50.4175 89.2525 49.1675 89.5549 47.7295 89.6624C47.6354 90.3075 47.5615 90.8922 47.5077 91.4163C47.3867 92.4378 47.2725 93.1904 47.165 93.6742C47.0575 94.1581 46.8962 94.4 46.6811 94.4ZM48.0319 87.1626C49.2011 86.9341 50.1016 86.5846 50.7333 86.1142C51.3784 85.6304 51.701 85.0928 51.701 84.5014C51.701 84.0982 51.4994 83.7622 51.0962 83.4934C50.7064 83.2112 50.1755 83.0701 49.5035 83.0701C49.2616 83.0701 48.9995 83.0902 48.7173 83.1306L48.3947 85.0256C48.2066 86.0874 48.0856 86.7997 48.0319 87.1626ZM58.2738 94.4C57.9109 94.4 57.5144 94.2858 57.0843 94.0573C56.6542 93.8154 56.2846 93.5398 55.9755 93.2307C55.6664 92.9082 55.5118 92.6394 55.5118 92.4243C55.5118 92.169 55.5656 91.8397 55.6731 91.4365C55.7806 91.0198 55.9419 90.4822 56.157 89.8237C56.372 89.1382 56.5333 88.5939 56.6408 88.1907C56.7483 87.7741 56.8021 87.4381 56.8021 87.1827C56.8021 87.0752 56.7416 86.961 56.6206 86.84C56.4997 86.719 56.3115 86.5578 56.0562 86.3562C55.7605 86.1142 55.5454 85.9261 55.411 85.7917C55.2766 85.6573 55.2094 85.5229 55.2094 85.3885C55.2094 85.1062 55.3438 84.777 55.6126 84.4006C55.8814 84.0243 56.1973 83.7018 56.5602 83.433C56.923 83.1642 57.2322 83.0298 57.4875 83.0298C57.7698 83.0298 58.0923 83.1574 58.4552 83.4128C58.8181 83.6682 59.1339 83.9638 59.4027 84.2998C59.6715 84.6224 59.8059 84.871 59.8059 85.0458C59.8059 85.5565 59.7051 86.2285 59.5035 87.0618L59.7454 87.1827C60.0546 86.6854 60.3906 86.0941 60.7534 85.4086C61.1298 84.7098 61.3582 84.2797 61.4389 84.1184L61.8219 83.3926C62.7493 83.3658 63.4414 83.5338 63.8984 83.8966C64.3554 84.2595 64.5838 84.7434 64.5838 85.3482C64.5838 85.9395 64.389 86.5309 63.9992 87.1222C63.0315 87.4448 62.205 87.7674 61.5195 88.0899C60.8475 88.399 60.1688 88.7686 59.4834 89.1987C59.443 90.6906 59.3221 91.9338 59.1205 92.9283C58.9323 93.9094 58.6501 94.4 58.2738 94.4ZM69.3459 83.0096C70.3001 83.1171 71.167 83.4061 71.9465 83.8765C72.7395 84.3334 73.3577 84.8845 73.8012 85.5296C74.2447 86.1747 74.4665 86.8198 74.4665 87.465C74.4665 88.4326 74.2179 89.4608 73.7206 90.5494C73.2233 91.6381 72.5311 92.552 71.6441 93.2912C70.7571 94.0304 69.7692 94.4 68.6806 94.4C68.143 94.4 67.5718 94.2051 66.967 93.8154C66.3622 93.4122 65.8515 92.9283 65.4348 92.3638C65.0316 91.7859 64.83 91.2752 64.83 90.8317C64.83 90.0118 64.9308 89.1718 65.1324 88.3117C65.334 87.4381 65.6431 86.5914 66.0598 85.7715C66.4495 85.5565 66.8393 85.449 67.2291 85.449C67.4038 85.449 67.5651 85.4691 67.7129 85.5094C67.6591 85.3482 67.6323 85.16 67.6323 84.945C67.6323 84.5149 67.7801 84.1251 68.0758 83.7757C68.3849 83.4262 68.8083 83.1709 69.3459 83.0096ZM67.9548 92.1018C69.0703 91.7254 69.9372 91.0803 70.5555 90.1664C71.1737 89.2525 71.5836 88.1638 71.7852 86.9005C71.1804 86.4704 70.3606 86.2554 69.3257 86.2554C69.0703 86.2554 68.8755 86.2621 68.7411 86.2755C68.8889 86.5443 68.9628 86.8467 68.9628 87.1827C68.6134 87.7338 68.3446 88.3453 68.1564 89.0173C67.9683 89.6758 67.8742 90.3411 67.8742 91.0131C67.8742 91.4163 67.9011 91.7792 67.9548 92.1018ZM82.2561 91.2147C81.4363 91.8598 80.6097 92.4176 79.7765 92.888C78.9566 93.3584 78.2779 93.5936 77.7403 93.5936C77.4312 93.5936 77.0885 93.4794 76.7121 93.2509C76.3493 93.009 76.0401 92.72 75.7848 92.384C75.5294 92.0346 75.4017 91.712 75.4017 91.4163C75.4017 90.3008 75.6235 89.0845 76.067 87.7674C76.524 86.4368 77.1355 85.3146 77.9016 84.4006C78.6811 83.4867 79.5345 83.0298 80.4619 83.0298C80.8248 83.0298 81.1809 83.1978 81.5304 83.5338C81.8798 83.8563 82.1553 84.2192 82.3569 84.6224C82.4107 84.2998 82.4981 84.0445 82.619 83.8563C82.7534 83.6682 82.8878 83.5741 83.0222 83.5741C83.2238 83.5741 83.5329 83.7085 83.9496 83.9773C84.3662 84.2326 84.7425 84.5216 85.0785 84.8442C85.4145 85.1667 85.5825 85.4086 85.5825 85.5699C85.5825 86.0806 85.3809 87.4448 84.9777 89.6624C84.588 91.88 84.1579 94.0371 83.6875 96.1338C83.2305 98.2304 82.9013 99.4467 82.6997 99.7827C82.3905 100.267 81.9067 100.69 81.2481 101.053C80.603 101.416 79.9713 101.597 79.3531 101.597C78.7752 101.597 78.1905 101.422 77.5992 101.073C77.0078 100.724 76.524 100.293 76.1477 99.7827C75.7713 99.272 75.5832 98.8083 75.5832 98.3917C75.5832 97.9078 75.8654 97.3434 76.4299 96.6982C77.0078 96.0531 77.7067 95.408 78.5265 94.7629C79.3464 94.1312 80.3947 93.3651 81.6715 92.4646C81.9 92.2899 82.2427 92.0413 82.6997 91.7187L82.2561 91.2147ZM81.1675 85.5901C80.6971 85.5901 80.2536 85.8925 79.8369 86.4973C79.4337 87.0886 79.091 87.8346 78.8088 88.735C78.5265 89.6221 78.3384 90.4957 78.2443 91.3558C79.5077 90.8317 80.5157 90.0992 81.2683 89.1584C82.0209 88.2176 82.4309 87.2499 82.4981 86.2554C82.3368 86.0806 82.1285 85.9261 81.8731 85.7917C81.6312 85.6573 81.396 85.5901 81.1675 85.5901ZM82.0142 94.4605C79.7294 96.248 78.587 97.5248 78.587 98.2909C78.587 98.5597 78.7013 98.7882 78.9297 98.9763C79.1717 99.1779 79.4741 99.3392 79.8369 99.4602C80.2401 98.9898 80.6097 98.3514 80.9457 97.545C81.2817 96.7386 81.6379 95.7104 82.0142 94.4605ZM89.7935 94.4C89.4306 94.4 89.0341 94.2858 88.604 94.0573C88.1739 93.8154 87.8043 93.5398 87.4952 93.2307C87.1861 92.9082 87.0315 92.6394 87.0315 92.4243C87.0315 92.169 87.0853 91.8397 87.1928 91.4365C87.3003 91.0198 87.4616 90.4822 87.6767 89.8237C87.8917 89.1382 88.053 88.5939 88.1605 88.1907C88.268 87.7741 88.3218 87.4381 88.3218 87.1827C88.3218 87.0752 88.2613 86.961 88.1403 86.84C88.0194 86.719 87.8312 86.5578 87.5759 86.3562C87.2802 86.1142 87.0651 85.9261 86.9307 85.7917C86.7963 85.6573 86.7291 85.5229 86.7291 85.3885C86.7291 85.1062 86.8635 84.777 87.1323 84.4006C87.4011 84.0243 87.717 83.7018 88.0799 83.433C88.4427 83.1642 88.7519 83.0298 89.0072 83.0298C89.2895 83.0298 89.612 83.1574 89.9749 83.4128C90.3378 83.6682 90.6536 83.9638 90.9224 84.2998C91.1912 84.6224 91.3256 84.871 91.3256 85.0458C91.3256 85.5565 91.2248 86.2285 91.0232 87.0618L91.2651 87.1827C91.5743 86.6854 91.9103 86.0941 92.2731 85.4086C92.6495 84.7098 92.8779 84.2797 92.9586 84.1184L93.3416 83.3926C94.269 83.3658 94.9611 83.5338 95.4181 83.8966C95.8751 84.2595 96.1035 84.7434 96.1035 85.3482C96.1035 85.9395 95.9087 86.5309 95.5189 87.1222C94.5512 87.4448 93.7247 87.7674 93.0392 88.0899C92.3672 88.399 91.6885 88.7686 91.0031 89.1987C90.9627 90.6906 90.8418 91.9338 90.6402 92.9283C90.452 93.9094 90.1698 94.4 89.7935 94.4ZM105.646 91.4365C106.466 91.0333 107.158 90.6032 107.722 90.1462C108.314 90.3478 108.75 90.6301 109.033 90.993C109.328 91.3424 109.476 91.7456 109.476 92.2026C109.476 92.5251 109.248 92.8611 108.791 93.2106C108.334 93.5466 107.79 93.8288 107.158 94.0573C106.526 94.2858 105.989 94.4 105.545 94.4C105.236 94.4 104.88 94.2858 104.477 94.0573C104.087 93.8288 103.744 93.56 103.448 93.2509C103.166 92.9418 103.025 92.6998 103.025 92.5251C103.025 92.3907 103.079 92.2093 103.186 91.9808C103.307 91.7523 103.435 91.5171 103.569 91.2752C103.704 91.0333 103.791 90.872 103.831 90.7914L103.327 90.5091C102.615 91.6784 101.93 92.6192 101.271 93.3315C100.626 94.0438 99.9876 94.4 99.3559 94.4C98.9258 94.4 98.4689 94.2118 97.985 93.8355C97.5146 93.4592 97.1114 93.0022 96.7754 92.4646C96.4529 91.927 96.2916 91.4499 96.2916 91.0333C96.2916 89.8371 96.5402 88.6141 97.0375 87.3642C97.5348 86.1142 98.2269 85.0794 99.114 84.2595C100.014 83.4397 101.029 83.0298 102.158 83.0298C102.561 83.0298 102.971 83.2112 103.388 83.5741C103.805 83.937 104.073 84.3066 104.194 84.6829C104.262 84.3872 104.356 84.1318 104.477 83.9168C104.611 83.6883 104.752 83.5741 104.9 83.5741C105.249 83.5741 105.632 83.7018 106.049 83.9571C106.479 84.199 106.842 84.488 107.138 84.824C107.433 85.1466 107.581 85.4019 107.581 85.5901C107.568 85.8454 107.46 86.2688 107.259 86.8602C107.07 87.4515 106.761 88.352 106.331 89.5616C106.076 90.2202 105.847 90.8451 105.646 91.4365ZM99.4567 91.5978C100.545 90.9258 101.493 90.0992 102.299 89.1181C103.106 88.1235 103.657 87.0282 103.952 85.832C103.59 85.6707 103.247 85.5901 102.924 85.5901C102.293 85.5901 101.728 85.8723 101.231 86.4368C100.734 87.0013 100.337 87.7405 100.041 88.6544C99.7457 89.5683 99.5508 90.5494 99.4567 91.5978ZM114.843 87.6262C115.904 86.2285 116.724 85.207 117.302 84.5619C117.88 83.9034 118.351 83.5741 118.713 83.5741C118.969 83.5741 119.264 83.6816 119.6 83.8966C119.95 84.1117 120.246 84.3603 120.488 84.6426C120.743 84.9114 120.864 85.1264 120.85 85.2877C120.837 85.6237 120.79 85.9866 120.709 86.3763C120.629 86.7661 120.514 87.2432 120.367 87.8077C121.482 86.383 122.356 85.3213 122.987 84.6224C123.632 83.9235 124.136 83.5741 124.499 83.5741C124.755 83.5741 125.064 83.7018 125.427 83.9571C125.79 84.2125 126.099 84.5082 126.354 84.8442C126.623 85.1667 126.757 85.4154 126.757 85.5901C126.744 85.8186 126.65 86.2083 126.475 86.7594C126.3 87.3104 126.052 88.0429 125.729 88.9568C125.299 90.1395 125.024 90.9392 124.903 91.3558C125.333 91.1274 125.662 90.9392 125.89 90.7914C126.132 90.6301 126.415 90.415 126.737 90.1462C127.328 90.3478 127.772 90.6301 128.068 90.993C128.363 91.3424 128.511 91.7456 128.511 92.2026C128.511 92.5251 128.276 92.8611 127.806 93.2106C127.349 93.5466 126.804 93.8288 126.173 94.0573C125.541 94.2858 125.003 94.4 124.56 94.4C124.264 94.4 123.915 94.279 123.512 94.0371C123.108 93.7952 122.759 93.5197 122.463 93.2106C122.168 92.888 122.02 92.6394 122.02 92.4646C122.02 92.3571 122.087 92.1018 122.221 91.6986C122.356 91.2819 122.443 90.9997 122.483 90.8518C122.739 90.0454 122.927 89.407 123.048 88.9366C123.182 88.4528 123.249 88.0966 123.249 87.8682C123.249 87.7069 123.216 87.6262 123.149 87.6262C122.584 87.6262 121.583 88.567 120.145 90.4486C120.037 90.8384 119.936 91.329 119.842 91.9203C119.681 92.7805 119.54 93.4122 119.419 93.8154C119.298 94.2051 119.137 94.4 118.935 94.4C118.653 94.4 118.304 94.279 117.887 94.0371C117.47 93.7952 117.107 93.5197 116.798 93.2106C116.489 92.888 116.335 92.6259 116.335 92.4243C116.335 92.2899 116.482 91.7658 116.778 90.8518C117.02 90.0858 117.208 89.4608 117.343 88.977C117.477 88.4797 117.544 88.1101 117.544 87.8682C117.544 87.7069 117.504 87.6262 117.423 87.6262C116.886 87.6262 115.884 88.567 114.419 90.4486C114.366 90.6637 114.305 90.9325 114.238 91.255C114.184 91.5776 114.144 91.8061 114.117 91.9405C113.969 92.7334 113.828 93.345 113.694 93.775C113.573 94.1917 113.411 94.4 113.21 94.4C112.86 94.4 112.464 94.2858 112.02 94.0573C111.59 93.8154 111.214 93.5398 110.891 93.2307C110.582 92.9082 110.428 92.6394 110.428 92.4243C110.428 92.1824 110.515 91.8262 110.69 91.3558C110.864 90.8854 111.127 90.2403 111.476 89.4205C111.745 88.7888 111.946 88.2982 112.081 87.9488C112.215 87.5859 112.282 87.3306 112.282 87.1827C112.282 87.0752 112.215 86.961 112.081 86.84C111.96 86.7056 111.772 86.5443 111.516 86.3562C111.221 86.1277 110.999 85.9462 110.851 85.8118C110.717 85.6774 110.649 85.5363 110.649 85.3885C110.649 85.1062 110.777 84.777 111.032 84.4006C111.301 84.0243 111.61 83.7018 111.96 83.433C112.323 83.1642 112.632 83.0298 112.887 83.0298C113.169 83.0298 113.492 83.1574 113.855 83.4128C114.231 83.6682 114.554 83.9638 114.823 84.2998C115.105 84.6224 115.246 84.871 115.246 85.0458C115.246 85.3683 115.206 85.7648 115.125 86.2352C115.058 86.7056 114.964 87.1693 114.843 87.6262ZM133.881 87.6262C134.942 86.2285 135.762 85.207 136.34 84.5619C136.918 83.9034 137.388 83.5741 137.751 83.5741C138.007 83.5741 138.302 83.6816 138.638 83.8966C138.988 84.1117 139.283 84.3603 139.525 84.6426C139.781 84.9114 139.902 85.1264 139.888 85.2877C139.875 85.6237 139.828 85.9866 139.747 86.3763C139.666 86.7661 139.552 87.2432 139.404 87.8077C140.52 86.383 141.394 85.3213 142.025 84.6224C142.67 83.9235 143.174 83.5741 143.537 83.5741C143.793 83.5741 144.102 83.7018 144.465 83.9571C144.827 84.2125 145.137 84.5082 145.392 84.8442C145.661 85.1667 145.795 85.4154 145.795 85.5901C145.782 85.8186 145.688 86.2083 145.513 86.7594C145.338 87.3104 145.09 88.0429 144.767 88.9568C144.337 90.1395 144.061 90.9392 143.94 91.3558C144.37 91.1274 144.7 90.9392 144.928 90.7914C145.17 90.6301 145.452 90.415 145.775 90.1462C146.366 90.3478 146.81 90.6301 147.106 90.993C147.401 91.3424 147.549 91.7456 147.549 92.2026C147.549 92.5251 147.314 92.8611 146.843 93.2106C146.386 93.5466 145.842 93.8288 145.21 94.0573C144.579 94.2858 144.041 94.4 143.598 94.4C143.302 94.4 142.953 94.279 142.549 94.0371C142.146 93.7952 141.797 93.5197 141.501 93.2106C141.205 92.888 141.058 92.6394 141.058 92.4646C141.058 92.3571 141.125 92.1018 141.259 91.6986C141.394 91.2819 141.481 90.9997 141.521 90.8518C141.777 90.0454 141.965 89.407 142.086 88.9366C142.22 88.4528 142.287 88.0966 142.287 87.8682C142.287 87.7069 142.254 87.6262 142.186 87.6262C141.622 87.6262 140.621 88.567 139.183 90.4486C139.075 90.8384 138.974 91.329 138.88 91.9203C138.719 92.7805 138.578 93.4122 138.457 93.8154C138.336 94.2051 138.175 94.4 137.973 94.4C137.691 94.4 137.341 94.279 136.925 94.0371C136.508 93.7952 136.145 93.5197 135.836 93.2106C135.527 92.888 135.372 92.6259 135.372 92.4243C135.372 92.2899 135.52 91.7658 135.816 90.8518C136.058 90.0858 136.246 89.4608 136.38 88.977C136.515 88.4797 136.582 88.1101 136.582 87.8682C136.582 87.7069 136.542 87.6262 136.461 87.6262C135.923 87.6262 134.922 88.567 133.457 90.4486C133.403 90.6637 133.343 90.9325 133.276 91.255C133.222 91.5776 133.182 91.8061 133.155 91.9405C133.007 92.7334 132.866 93.345 132.731 93.775C132.61 94.1917 132.449 94.4 132.248 94.4C131.898 94.4 131.502 94.2858 131.058 94.0573C130.628 93.8154 130.252 93.5398 129.929 93.2307C129.62 92.9082 129.466 92.6394 129.466 92.4243C129.466 92.1824 129.553 91.8262 129.728 91.3558C129.902 90.8854 130.164 90.2403 130.514 89.4205C130.783 88.7888 130.984 88.2982 131.119 87.9488C131.253 87.5859 131.32 87.3306 131.32 87.1827C131.32 87.0752 131.253 86.961 131.119 86.84C130.998 86.7056 130.81 86.5443 130.554 86.3562C130.258 86.1277 130.037 85.9462 129.889 85.8118C129.754 85.6774 129.687 85.5363 129.687 85.3885C129.687 85.1062 129.815 84.777 130.07 84.4006C130.339 84.0243 130.648 83.7018 130.998 83.433C131.361 83.1642 131.67 83.0298 131.925 83.0298C132.207 83.0298 132.53 83.1574 132.893 83.4128C133.269 83.6682 133.592 83.9638 133.86 84.2998C134.143 84.6224 134.284 84.871 134.284 85.0458C134.284 85.3683 134.243 85.7648 134.163 86.2352C134.096 86.7056 134.002 87.1693 133.881 87.6262ZM152.898 94.4C152.253 94.4 151.581 94.1917 150.882 93.775C150.183 93.345 149.605 92.8208 149.148 92.2026C148.691 91.5843 148.463 90.9997 148.463 90.4486C148.463 89.4675 148.691 88.3923 149.148 87.223C149.619 86.0538 150.264 85.0659 151.084 84.2595C151.904 83.4397 152.831 83.0298 153.866 83.0298C154.605 83.0298 155.27 83.191 155.862 83.5136C156.467 83.8362 156.937 84.2394 157.273 84.7232C157.609 85.207 157.777 85.6774 157.777 86.1344C157.777 86.6989 157.522 87.2566 157.011 87.8077C156.5 88.3453 155.788 88.8224 154.874 89.239C153.96 89.6422 152.918 89.9312 151.749 90.1059C151.736 90.2672 151.729 90.5091 151.729 90.8317C151.729 91.2349 151.742 91.5373 151.769 91.7389C152.441 91.6717 153.107 91.4902 153.765 91.1946C154.424 90.8989 155.143 90.4822 155.922 89.9446C156.446 90.1059 156.843 90.3613 157.112 90.7107C157.38 91.0602 157.515 91.4768 157.515 91.9606C157.515 92.3638 157.266 92.7603 156.769 93.1501C156.285 93.5264 155.68 93.8288 154.955 94.0573C154.229 94.2858 153.543 94.4 152.898 94.4ZM152.051 88.5939C152.871 88.2982 153.557 87.9219 154.108 87.465C154.659 87.008 154.934 86.6182 154.934 86.2957C154.934 85.9194 154.672 85.664 154.148 85.5296C153.637 85.9059 153.201 86.3562 152.838 86.8803C152.488 87.4045 152.226 87.9757 152.051 88.5939ZM162.263 94.4C161.9 94.4 161.504 94.2858 161.074 94.0573C160.644 93.8154 160.274 93.5398 159.965 93.2307C159.656 92.9082 159.501 92.6394 159.501 92.4243C159.501 92.169 159.555 91.8397 159.663 91.4365C159.77 91.0198 159.931 90.4822 160.146 89.8237C160.361 89.1382 160.523 88.5939 160.63 88.1907C160.738 87.7741 160.791 87.4381 160.791 87.1827C160.791 87.0752 160.731 86.961 160.61 86.84C160.489 86.719 160.301 86.5578 160.046 86.3562C159.75 86.1142 159.535 85.9261 159.4 85.7917C159.266 85.6573 159.199 85.5229 159.199 85.3885C159.199 85.1062 159.333 84.777 159.602 84.4006C159.871 84.0243 160.187 83.7018 160.55 83.433C160.912 83.1642 161.222 83.0298 161.477 83.0298C161.759 83.0298 162.082 83.1574 162.445 83.4128C162.807 83.6682 163.123 83.9638 163.392 84.2998C163.661 84.6224 163.795 84.871 163.795 85.0458C163.795 85.5565 163.695 86.2285 163.493 87.0618L163.735 87.1827C164.044 86.6854 164.38 86.0941 164.743 85.4086C165.119 84.7098 165.348 84.2797 165.428 84.1184L165.811 83.3926C166.739 83.3658 167.431 83.5338 167.888 83.8966C168.345 84.2595 168.573 84.7434 168.573 85.3482C168.573 85.9395 168.378 86.5309 167.989 87.1222C167.021 87.4448 166.194 87.7674 165.509 88.0899C164.837 88.399 164.158 88.7686 163.473 89.1987C163.432 90.6906 163.311 91.9338 163.11 92.9283C162.922 93.9094 162.639 94.4 162.263 94.4ZM35.2128 113.179C34.944 113.044 34.7289 112.849 34.5677 112.594C34.4198 112.325 34.3459 112.036 34.3459 111.727C34.3459 111.189 34.5475 110.739 34.9507 110.376C35.7571 110.376 36.5635 110.356 37.3699 110.316C38.1763 110.276 38.976 110.222 39.7689 110.155C39.9974 110.141 40.5149 110.108 41.3213 110.054C41.5766 110.202 41.7648 110.403 41.8857 110.659C42.0201 110.9 42.0873 111.169 42.0873 111.465C42.0873 111.734 42.0336 111.996 41.9261 112.251C41.8185 112.493 41.6774 112.701 41.5027 112.876C39.863 112.903 37.7664 113.004 35.2128 113.179ZM45.5522 104.086C47.1784 104.221 48.6837 104.624 50.068 105.296C51.4523 105.968 52.5477 106.815 53.3541 107.836C54.1605 108.844 54.5637 109.906 54.5637 111.021C54.5637 112.003 54.1336 113.084 53.2735 114.267C52.4133 115.45 51.365 116.451 50.1285 117.271C48.9055 118.091 47.7899 118.501 46.7819 118.501C46.4459 118.501 46.0159 118.333 45.4917 117.997C44.981 117.661 44.5307 117.278 44.141 116.848C43.7512 116.404 43.5563 116.055 43.5563 115.799C43.5563 115.571 43.6907 114.932 43.9595 113.884C44.2283 112.796 44.4501 111.814 44.6248 110.941C44.692 110.605 44.8399 110.013 45.0683 109.167C45.0952 109.046 45.1624 108.804 45.2699 108.441C45.3775 108.065 45.4581 107.722 45.5119 107.413L44.6853 107.372C44.4703 106.942 44.3627 106.512 44.3627 106.082C44.3627 105.679 44.4635 105.309 44.6651 104.973C44.8667 104.624 45.1624 104.328 45.5522 104.086ZM46.7819 115.86C48.1259 115.161 49.2415 114.308 50.1285 113.3C51.029 112.292 51.4792 111.344 51.4792 110.457C51.4792 109.933 51.1634 109.429 50.5317 108.945C49.9135 108.461 49.2011 108.139 48.3947 107.977C48.2335 108.797 47.9915 109.973 47.669 111.505C47.2658 113.414 46.9701 114.865 46.7819 115.86ZM59.6779 118.4C59.0328 118.4 58.3608 118.192 57.6619 117.775C56.963 117.345 56.3851 116.821 55.9281 116.203C55.4712 115.584 55.2427 115 55.2427 114.449C55.2427 113.468 55.4712 112.392 55.9281 111.223C56.3985 110.054 57.0436 109.066 57.8635 108.26C58.6833 107.44 59.6107 107.03 60.6456 107.03C61.3848 107.03 62.05 107.191 62.6414 107.514C63.2462 107.836 63.7166 108.239 64.0526 108.723C64.3886 109.207 64.5566 109.677 64.5566 110.134C64.5566 110.699 64.3012 111.257 63.7905 111.808C63.2798 112.345 62.5675 112.822 61.6536 113.239C60.7396 113.642 59.698 113.931 58.5288 114.106C58.5153 114.267 58.5086 114.509 58.5086 114.832C58.5086 115.235 58.522 115.537 58.5489 115.739C59.2209 115.672 59.8862 115.49 60.5448 115.195C61.2033 114.899 61.9224 114.482 62.7019 113.945C63.226 114.106 63.6225 114.361 63.8913 114.711C64.1601 115.06 64.2945 115.477 64.2945 115.961C64.2945 116.364 64.0459 116.76 63.5486 117.15C63.0648 117.526 62.46 117.829 61.7342 118.057C61.0084 118.286 60.323 118.4 59.6779 118.4ZM58.8312 112.594C59.651 112.298 60.3364 111.922 60.8875 111.465C61.4385 111.008 61.714 110.618 61.714 110.296C61.714 109.919 61.452 109.664 60.9278 109.53C60.4171 109.906 59.9803 110.356 59.6174 110.88C59.268 111.404 59.0059 111.976 58.8312 112.594ZM71.7846 109.429C71.1798 109.886 70.6892 110.336 70.3129 110.78C69.95 111.223 69.7686 111.599 69.7686 111.908C69.7686 112.056 69.8963 112.211 70.1516 112.372C70.407 112.52 70.8303 112.728 71.4217 112.997C72.3625 113.427 73.1017 113.83 73.6393 114.207C74.1769 114.57 74.4457 114.993 74.4457 115.477C74.4457 115.961 74.1702 116.431 73.6192 116.888C73.0815 117.332 72.4095 117.694 71.6031 117.977C70.7967 118.259 70.0441 118.4 69.3452 118.4C68.8211 118.4 68.27 118.292 67.6921 118.077C67.1142 117.849 66.6303 117.567 66.2406 117.231C65.8508 116.881 65.6559 116.552 65.6559 116.243C65.6559 115.692 65.8307 115.255 66.1801 114.932C66.543 114.596 67.0134 114.428 67.5913 114.428C67.8601 114.428 68.1356 114.469 68.4179 114.549C68.6463 115.275 68.8412 115.793 69.0025 116.102C69.8223 115.887 70.5548 115.524 71.2 115.013C70.071 114.529 69.0361 113.985 68.0953 113.38C67.1679 112.775 66.7043 112.211 66.7043 111.687C66.7043 111.149 66.9529 110.511 67.4502 109.772C67.9475 109.019 68.5791 108.374 69.3452 107.836C70.1247 107.285 70.9177 107.01 71.7241 107.01C72.2751 107.01 72.7993 107.171 73.2966 107.493C73.8073 107.816 74.2172 108.219 74.5263 108.703C74.8355 109.187 74.99 109.657 74.99 110.114C74.99 110.558 74.8153 110.921 74.4659 111.203C74.1299 111.472 73.6998 111.606 73.1756 111.606C72.8396 111.606 72.4969 111.539 72.1475 111.404C72.1206 110.867 71.9996 110.208 71.7846 109.429ZM80.1472 106.445C79.8918 106.445 79.5827 106.344 79.2198 106.143C78.8704 105.928 78.568 105.679 78.3126 105.397C78.0573 105.101 77.9296 104.839 77.9296 104.611C77.9296 104.248 78.0237 103.885 78.2118 103.522C78.4 103.159 78.6352 102.897 78.9174 102.736C79.0518 102.668 79.2669 102.635 79.5626 102.635C80.0464 102.635 80.5302 102.742 81.0141 102.957C81.5114 103.172 81.8138 103.441 81.9213 103.764C81.9482 103.831 81.9616 103.932 81.9616 104.066C81.9616 104.375 81.8675 104.718 81.6794 105.094C81.4912 105.471 81.256 105.793 80.9738 106.062C80.6915 106.317 80.416 106.445 80.1472 106.445ZM78.7763 118.4C78.4269 118.4 78.0304 118.286 77.5869 118.057C77.1568 117.815 76.7805 117.54 76.4579 117.231C76.1488 116.908 75.9942 116.639 75.9942 116.424C75.9942 116.182 76.0816 115.826 76.2563 115.356C76.431 114.885 76.6931 114.24 77.0426 113.42C77.3114 112.789 77.513 112.298 77.6474 111.949C77.7818 111.586 77.849 111.331 77.849 111.183C77.849 111.075 77.7818 110.961 77.6474 110.84C77.5264 110.706 77.3382 110.544 77.0829 110.356C76.7872 110.128 76.5654 109.946 76.4176 109.812C76.2832 109.677 76.216 109.536 76.216 109.388C76.216 109.106 76.3437 108.777 76.599 108.401C76.8678 108.024 77.177 107.702 77.5264 107.433C77.8893 107.164 78.1984 107.03 78.4538 107.03C78.7629 107.03 79.0989 107.164 79.4618 107.433C79.8381 107.702 80.1539 108.024 80.4093 108.401C80.6781 108.764 80.8125 109.059 80.8125 109.288C80.8125 109.879 80.6579 110.726 80.3488 111.828C80.0531 112.916 79.6701 114.092 79.1997 115.356C79.5222 115.208 79.8045 115.053 80.0464 114.892C80.2883 114.731 80.6243 114.482 81.0544 114.146C81.6592 114.348 82.1027 114.637 82.385 115.013C82.6672 115.376 82.8083 115.772 82.8083 116.203C82.8083 116.552 82.5798 116.895 82.1229 117.231C81.6794 117.567 81.135 117.849 80.4899 118.077C79.8448 118.292 79.2736 118.4 78.7763 118.4ZM90.5249 115.215C89.705 115.86 88.8785 116.418 88.0452 116.888C87.2254 117.358 86.5466 117.594 86.009 117.594C85.6999 117.594 85.3572 117.479 84.9809 117.251C84.618 117.009 84.3089 116.72 84.0535 116.384C83.7982 116.035 83.6705 115.712 83.6705 115.416C83.6705 114.301 83.8922 113.084 84.3358 111.767C84.7927 110.437 85.4042 109.315 86.1703 108.401C86.9498 107.487 87.8033 107.03 88.7306 107.03C89.0935 107.03 89.4497 107.198 89.7991 107.534C90.1486 107.856 90.4241 108.219 90.6257 108.622C90.6794 108.3 90.7668 108.044 90.8878 107.856C91.0222 107.668 91.1566 107.574 91.291 107.574C91.4926 107.574 91.8017 107.708 92.2183 107.977C92.635 108.233 93.0113 108.522 93.3473 108.844C93.6833 109.167 93.8513 109.409 93.8513 109.57C93.8513 110.081 93.6497 111.445 93.2465 113.662C92.8567 115.88 92.4266 118.037 91.9562 120.134C91.4993 122.23 91.17 123.447 90.9684 123.783C90.6593 124.267 90.1754 124.69 89.5169 125.053C88.8718 125.416 88.2401 125.597 87.6218 125.597C87.0439 125.597 86.4593 125.422 85.8679 125.073C85.2766 124.724 84.7927 124.293 84.4164 123.783C84.0401 123.272 83.8519 122.808 83.8519 122.392C83.8519 121.908 84.1342 121.343 84.6986 120.698C85.2766 120.053 85.9754 119.408 86.7953 118.763C87.6151 118.131 88.6634 117.365 89.9402 116.465C90.1687 116.29 90.5114 116.041 90.9684 115.719L90.5249 115.215ZM89.4362 109.59C88.9658 109.59 88.5223 109.892 88.1057 110.497C87.7025 111.089 87.3598 111.835 87.0775 112.735C86.7953 113.622 86.6071 114.496 86.513 115.356C87.7764 114.832 88.7844 114.099 89.537 113.158C90.2897 112.218 90.6996 111.25 90.7668 110.255C90.6055 110.081 90.3972 109.926 90.1418 109.792C89.8999 109.657 89.6647 109.59 89.4362 109.59ZM90.283 118.46C87.9982 120.248 86.8558 121.525 86.8558 122.291C86.8558 122.56 86.97 122.788 87.1985 122.976C87.4404 123.178 87.7428 123.339 88.1057 123.46C88.5089 122.99 88.8785 122.351 89.2145 121.545C89.5505 120.739 89.9066 119.71 90.283 118.46ZM105.38 114.146C105.972 114.348 106.408 114.63 106.691 114.993C106.986 115.342 107.134 115.746 107.134 116.203C107.134 116.525 106.906 116.861 106.449 117.211C105.992 117.547 105.447 117.829 104.816 118.057C104.184 118.286 103.647 118.4 103.203 118.4C102.894 118.4 102.538 118.279 102.135 118.037C101.731 117.795 101.382 117.52 101.086 117.211C100.804 116.888 100.663 116.639 100.663 116.465C100.663 116.33 100.811 115.806 101.106 114.892C101.631 113.293 101.893 112.285 101.893 111.868C101.893 111.707 101.852 111.626 101.772 111.626C101.234 111.626 100.233 112.567 98.7678 114.449C98.714 114.664 98.6536 114.932 98.5864 115.255C98.5326 115.578 98.4923 115.806 98.4654 115.94C98.3176 116.733 98.1764 117.345 98.042 117.775C97.9211 118.192 97.7598 118.4 97.5582 118.4C97.2088 118.4 96.8123 118.286 96.3688 118.057C95.9387 117.815 95.5624 117.54 95.2398 117.231C94.9307 116.908 94.7761 116.639 94.7761 116.424C94.7761 116.182 94.8635 115.826 95.0382 115.356C95.2129 114.885 95.475 114.24 95.8244 113.42C96.0932 112.789 96.2948 112.298 96.4292 111.949C96.5636 111.586 96.6308 111.331 96.6308 111.183C96.6308 111.075 96.5636 110.961 96.4292 110.84C96.3083 110.706 96.1201 110.544 95.8648 110.356C95.5691 110.128 95.3473 109.946 95.1995 109.812C95.0651 109.677 94.9979 109.536 94.9979 109.388C94.9979 109.106 95.1256 108.777 95.3809 108.401C95.6497 108.024 95.9588 107.702 96.3083 107.433C96.6712 107.164 96.9803 107.03 97.2356 107.03C97.5179 107.03 97.8404 107.157 98.2033 107.413C98.5796 107.668 98.9022 107.964 99.171 108.3C99.4532 108.622 99.5944 108.871 99.5944 109.046C99.5944 109.368 99.554 109.765 99.4734 110.235C99.4062 110.706 99.3121 111.169 99.1912 111.626C100.172 110.336 100.985 109.341 101.631 108.643C102.276 107.93 102.78 107.574 103.143 107.574C103.398 107.574 103.707 107.702 104.07 107.957C104.433 108.212 104.742 108.508 104.997 108.844C105.266 109.167 105.4 109.415 105.4 109.59C105.387 109.819 105.293 110.208 105.118 110.759C104.943 111.31 104.695 112.043 104.372 112.957C103.942 114.14 103.667 114.939 103.546 115.356C103.962 115.141 104.285 114.959 104.513 114.812C104.755 114.65 105.044 114.428 105.38 114.146ZM112.48 118.4C111.835 118.4 111.163 118.192 110.464 117.775C109.765 117.345 109.187 116.821 108.73 116.203C108.273 115.584 108.045 115 108.045 114.449C108.045 113.468 108.273 112.392 108.73 111.223C109.2 110.054 109.846 109.066 110.665 108.26C111.485 107.44 112.413 107.03 113.447 107.03C114.187 107.03 114.852 107.191 115.443 107.514C116.048 107.836 116.518 108.239 116.854 108.723C117.19 109.207 117.358 109.677 117.358 110.134C117.358 110.699 117.103 111.257 116.592 111.808C116.082 112.345 115.369 112.822 114.455 113.239C113.542 113.642 112.5 113.931 111.331 114.106C111.317 114.267 111.31 114.509 111.31 114.832C111.31 115.235 111.324 115.537 111.351 115.739C112.023 115.672 112.688 115.49 113.347 115.195C114.005 114.899 114.724 114.482 115.504 113.945C116.028 114.106 116.424 114.361 116.693 114.711C116.962 115.06 117.096 115.477 117.096 115.961C117.096 116.364 116.848 116.76 116.35 117.15C115.867 117.526 115.262 117.829 114.536 118.057C113.81 118.286 113.125 118.4 112.48 118.4ZM111.633 112.594C112.453 112.298 113.138 111.922 113.689 111.465C114.24 111.008 114.516 110.618 114.516 110.296C114.516 109.919 114.254 109.664 113.73 109.53C113.219 109.906 112.782 110.356 112.419 110.88C112.07 111.404 111.808 111.976 111.633 112.594ZM121.845 118.4C121.482 118.4 121.085 118.286 120.655 118.057C120.225 117.815 119.856 117.54 119.546 117.231C119.237 116.908 119.083 116.639 119.083 116.424C119.083 116.169 119.137 115.84 119.244 115.436C119.352 115.02 119.513 114.482 119.728 113.824C119.943 113.138 120.104 112.594 120.212 112.191C120.319 111.774 120.373 111.438 120.373 111.183C120.373 111.075 120.313 110.961 120.192 110.84C120.071 110.719 119.882 110.558 119.627 110.356C119.331 110.114 119.116 109.926 118.982 109.792C118.848 109.657 118.78 109.523 118.78 109.388C118.78 109.106 118.915 108.777 119.184 108.401C119.452 108.024 119.768 107.702 120.131 107.433C120.494 107.164 120.803 107.03 121.058 107.03C121.341 107.03 121.663 107.157 122.026 107.413C122.389 107.668 122.705 107.964 122.974 108.3C123.242 108.622 123.377 108.871 123.377 109.046C123.377 109.556 123.276 110.228 123.074 111.062L123.316 111.183C123.626 110.685 123.962 110.094 124.324 109.409C124.701 108.71 124.929 108.28 125.01 108.118L125.393 107.393C126.32 107.366 127.012 107.534 127.469 107.897C127.926 108.26 128.155 108.743 128.155 109.348C128.155 109.94 127.96 110.531 127.57 111.122C126.602 111.445 125.776 111.767 125.09 112.09C124.418 112.399 123.74 112.769 123.054 113.199C123.014 114.691 122.893 115.934 122.691 116.928C122.503 117.909 122.221 118.4 121.845 118.4Z" fill="#4D3926"/>
</svg>
