<svg width="451" height="224" viewBox="0 0 451 224" fill="none" xmlns="http://www.w3.org/2000/svg">
<path d="M184 45.5C174.999 31.2773 166.01 17.0541 156.747 3L153.5 5L181 47.5L184 45.5Z" fill="#A8A29C"/>
<path d="M182.65 44.4474C181.395 42.345 180.152 40.2347 178.91 38.1244L178.91 38.1242C176.077 33.3128 173.244 28.5014 170.262 23.7841C167.935 20.1016 165.517 16.4757 163.057 12.7861C160.965 9.64758 156.716 3.15796 156.716 3.15796L161.747 0C161.747 0 175.004 19.7289 180.194 27.6777C183.346 32.504 189.678 42.1047 189.678 42.1047H251.575V49.4196C202.747 49.4196 196.627 49.5 180.747 49.5V46.5C181.747 45.5 182.672 45.223 182.65 44.4474Z" fill="#867D76"/>
<path d="M248.747 43.5H240.747V47.5H248.747V43.5Z" fill="#453F39"/>
<path d="M238.747 43.5H230.747V47.5H238.747V43.5Z" fill="#453F39"/>
<path d="M229.247 43.5H198.747V47.5H229.247V43.5Z" fill="#453F39"/>
<path d="M194.747 43.5H186.747V47.5H194.747V43.5Z" fill="#453F39"/>
<path d="M274.837 49.851C268.5 49.851 264.5 49.851 258.6 49.851C257.546 48.5496 257.097 47.155 256.357 45.9374C251.666 38.218 251.03 29.9223 253.178 21.402C253.516 20.062 255.732 18.2286 257.155 18.1556C263.629 17.8233 270.13 18.1214 276.621 18.1556C277.429 18.1598 278.522 18.104 278.998 18.5709C282.218 21.7303 283.264 23.523 286 27.0767C289.595 31.7464 289.497 38.3724 283.143 42.1195C280.144 43.8886 277.714 47.1905 274.837 49.851ZM284.304 33.2908C284.108 29.0048 282.167 28.3716 282.167 28.3716C282.167 28.3716 281.44 28.2056 281.113 28.3329C281.113 31.5767 281.113 35.4163 281.113 38.5359C281.44 38.6491 281.84 38.4228 282.167 38.5359C283.003 37.0452 284.5 37.5767 284.304 33.2908Z" fill="#D9811B"/>
<rect x="115.042" y="18.6035" width="4" height="24" transform="rotate(-10 115.042 18.6035)" fill="#EA8E2B"/>
<path d="M118.981 17.9089L116.056 12.8397L115.042 18.6035L118.981 17.9089Z" fill="#BFAC86"/>
<rect x="120" y="15" width="4" height="24" fill="#E3E32C"/>
<path d="M124 15L122 9.5L120 15H124Z" fill="#BFAC86"/>
<rect x="126.092" y="17.9772" width="4" height="24" transform="rotate(5 126.092 17.9772)" fill="#85E427"/>
<path d="M130.077 18.3258L128.563 12.6724L126.092 17.9772L130.077 18.3258Z" fill="#BFAC86"/>
<rect x="114" y="29" width="18" height="20" fill="#584F48"/>
<rect x="113" y="26" width="20" height="3" fill="#29221A"/>
<path d="M319.614 113.783C319.765 113.355 320.057 113.411 320.202 113.434C320.394 114.607 320.593 115.775 320.456 116.903C320.022 120.483 321.714 121.332 325.034 121.326C333.715 121.312 342.398 121.642 351.404 122.148C343.478 122.458 335.229 122.455 326.98 122.454C318.826 122.454 318.826 122.455 319.614 113.783Z" fill="#246476"/>
<path d="M389.94 122.355C395.835 121.942 403.17 120.856 410 120.5C414.889 120.599 418.335 121.45 423.075 121.803C412.399 122.172 401.402 122.298 389.94 122.355Z" fill="#246476"/>
<rect x="364" y="136" width="12" height="21" fill="#B5AAAB"/>
<path d="M333.305 114.822C358.495 114.859 386.644 115.167 412.042 114.822C412.975 111.411 411.783 106.198 412.042 103.047C410.917 102.962 411.089 103.009 410.212 103.061C409.731 103.09 407.222 103.121 406.616 103.132C404.884 103.163 403.332 103.195 401.875 103.224C397.096 103.321 393.344 103.396 387.626 103.396C387.626 103.396 349.072 102.93 328.014 103.298C328.007 103.265 328.001 103.233 327.995 103.2C318.562 103.126 318.108 105.647 319.715 114.822C319.734 114.932 319.743 114.709 319.752 114.822C319.756 114.874 319.76 114.769 319.765 114.822C319.765 114.822 320.057 114.86 320.644 114.822C322.801 114.489 324.67 115.278 326.441 114.822C328.956 115.258 331.13 114.818 333.305 114.822Z" fill="#5096AE"/>
<path d="M328.721 112.023C333.309 112.084 337.896 112.146 343.244 112.482C345.797 112.917 347.59 113.212 349.382 113.216C369.409 113.253 392.436 113.245 412.463 113.249C412.503 115.664 412.543 118.079 412.07 120.873C405.196 121.597 395.835 121.942 389.474 122.287C389.226 122.516 388.977 122.745 388.077 123.066C375.689 123.049 363.951 122.94 352.214 122.832C352.214 122.832 351.781 122.693 351.431 122.264C342.398 121.642 333.715 121.312 325.034 121.326C321.714 121.331 320.022 120.483 320.456 116.903C320.593 115.775 320.103 114.711 320.5 113.5C323.438 113.001 326.225 112.46 328.721 112.023Z" fill="#3D7C92"/>
<path d="M407.467 100.948C407.128 101.141 406.88 100.953 406.595 100.467C406.826 100.387 407.16 100.52 407.467 100.948Z" fill="#1F1C1C"/>
<path d="M405.487 98.9512C405.226 99.0003 404.978 98.7556 404.649 98.258C404.878 98.2226 405.189 98.4399 405.487 98.9512Z" fill="#1F1C1C"/>
<path fill-rule="evenodd" clip-rule="evenodd" d="M406.397 100.329C405.854 99.763 405.646 99.519 405.473 99.2452C405.226 99.0004 404.978 98.7556 404.676 97.806C404.758 95.3736 404.86 93.0416 404.961 90.7719C405.126 87.0222 405.284 83.4427 405.324 79.8619C405.334 79.0195 403.96 77.5013 403.125 77.4261C400.627 77.2014 398.106 77.227 395.586 77.2526C394.772 77.2608 393.959 77.2691 393.146 77.2689C388.652 77.268 384.157 77.2638 379.662 77.2595C367.521 77.248 355.379 77.2364 343.237 77.291C334.368 77.3309 330.906 80.9519 330.765 89.7193C330.749 90.7027 330.791 91.6977 330.833 92.694C330.986 96.3553 331.14 100.033 328.445 103.205L328.446 103.219C328.517 105.865 328.588 108.511 328.69 111.59C333.309 112.084 337.896 112.146 342.943 112.179C343.438 109.598 343.524 107.041 343.624 104.105C343.63 103.929 343.636 103.751 343.642 103.572C340.509 99.2537 341.061 94.6289 341.581 90.275C341.62 89.9485 341.658 89.6236 341.695 89.3004C341.85 87.956 343.098 86.737 344.428 85.4374C345.045 84.8351 345.679 84.2155 346.23 83.5581C348.946 83.0767 351.424 82.8504 354.18 82.8919C365.836 83.2207 377.215 83.2818 389.056 83.2505C389.181 83.2164 389.292 83.185 389.392 83.1568C389.871 83.0218 390.097 82.9578 390.38 83.0028C390.922 83.2212 391.382 83.2803 392.18 83.2472C392.228 83.2319 392.274 83.2173 392.318 83.2033C392.812 83.0453 393.05 82.9691 393.368 83.0194C393.623 86.027 393.841 88.9776 394.065 92.014C394.205 93.9011 394.346 95.8213 394.501 97.809C394.514 98.4531 394.534 99.0745 394.553 99.6777C394.596 101.051 394.637 102.331 394.592 103.569C394.643 102.148 394.573 100.744 394.509 99.4512C394.495 99.1603 394.481 98.875 394.469 98.5963C394.417 98.7192 394.366 98.8404 394.316 98.9603C393.646 100.56 393.076 101.922 392.569 103.662C392.642 106.488 392.642 108.877 392.642 111.438H407.411C407.411 108.857 407.411 106.572 407.148 104.573C407.472 104.091 407.533 103.894 407.612 103.089C407.567 102.068 407.504 101.656 407.441 101.243C407.128 101.142 406.88 100.953 406.397 100.329Z" fill="#403136"/>
<path d="M354.18 82.8919C352.091 83.2117 349.724 83.2636 346.913 83.3092C348.946 83.0767 351.424 82.8504 354.18 82.8919Z" fill="#020101"/>
<path d="M393.368 83.0194C393.463 83.1693 392.989 83.2637 392.754 83.2093C392.771 83.0598 393.022 82.9647 393.368 83.0194Z" fill="#020101"/>
<path d="M390.38 83.0028C390.463 83.1621 389.99 83.2707 389.754 83.2145C389.778 83.0533 390.038 82.9484 390.38 83.0028Z" fill="#020101"/>
<path d="M387.836 122.26C375.74 122.082 363.959 121.908 352.277 122.264C352.296 123.196 352.282 124.284 352.268 125.348C352.252 126.623 352.236 127.863 352.277 128.759C353.594 128.84 354.867 128.8 356.098 128.762C357.249 128.727 358.362 128.692 359.438 128.759C359.513 130.07 359.477 131.425 359.442 132.733C359.409 133.951 359.377 135.128 359.438 136.189H381.316V128.759C381.316 128.759 385.46 128.899 388.108 128.759C388.108 128.124 388.155 127.4 388.204 126.652C388.306 125.084 388.415 123.415 388.108 122.264L387.836 122.26Z" fill="#33302A"/>
<path d="M374.855 156.032C373.123 156.037 371.459 156.042 369.799 156.029H369.781C368.245 156.016 366.712 156.02 365.133 156.025C364.709 156.026 364.282 156.028 363.85 156.029C363.767 156.159 363.682 156.291 363.596 156.425C362.936 157.45 362.224 158.556 362.201 159.793C362.14 163.186 362.148 166.581 362.156 169.975V169.984C362.164 173.391 362.172 176.798 362.11 180.204C362.056 183.139 361.847 186.072 361.638 189.005C361.589 189.701 361.575 190.409 361.562 191.117C361.55 191.749 361.538 192.379 361.5 193C361.47 193.14 355.312 193.038 353.493 193.008C353.213 193.003 353.035 193 353 193L328.958 193.586C325.5 196.5 325.126 199.993 327.61 203.33C329.368 205.691 329.665 206.956 327.234 209C323.254 212.346 322.994 217.457 326.197 220.766C329.478 224.154 335.391 224.217 338.774 220.9C342.298 217.445 341.98 213.061 338.281 209.041C337.723 208.433 337.431 207.58 337.122 206.68C337.072 206.534 336.945 206.301 336.803 206.044C336.453 205.406 336.018 204.614 336.473 204.602C337.111 204.586 366.217 204.216 366.217 204.216C366.217 204.216 366.332 206.219 366.217 206.211C366 206.5 365.741 206.557 365.214 207.025C361.066 210.715 360.5 215.633 363.881 219.123C367.184 222.533 373.021 222.634 376.424 219.341C379.962 215.918 379.615 210.986 375.483 207.253C375.101 206.909 374.547 206.755 373.992 206.602C373.832 206.558 373.673 206.514 373.517 206.466C373.423 206.436 373.329 206.405 373.238 206.371V204.495C374.9 204.495 376.562 204.498 378.224 204.5C386.559 204.513 394.894 204.527 403.227 204.208C403.212 204.267 403.227 204.322 403.266 204.462C403.325 204.676 403.44 205.088 403.588 206.018C403.62 206.377 403.62 206.392 403.62 207.641C398.523 211.523 397.602 216.061 400.606 219.686C403.589 223.286 409.445 223.795 413.088 220.771C416.771 217.712 416.891 213.571 413.425 209.129C413.336 209.116 413.247 208.812 413.247 208.812C413.247 208.812 410.409 205.932 412.144 203.483C415.111 199.296 414.137 195.182 410.241 193.501C409.895 193.351 409.854 193.351 409.854 193.351C409.854 193.351 388.797 192.896 378.467 193.098C377.796 191.907 377.783 189.763 377.788 188.449V188.441C377.823 178.809 377.856 169.507 377.755 160.207C377.739 158.79 376.886 157.354 375.96 156.029C375.588 156.03 375.22 156.031 374.855 156.032Z" fill="#33302A"/>
<path d="M411.522 103.404C413.78 94.9344 416.214 86.5071 418.261 77.9869C423.423 56.5039 428.407 34.9785 433.469 13.4715C435.088 6.58977 436.221 6.02716 444.416 7.97313C450.228 9.35315 451.2 10.9784 449.707 17.3457C441.965 50.3785 434.206 83.4074 426.381 116.421C425.935 118.304 424.858 120.038 423.414 121.701C418.335 121.45 413.915 121.34 409.539 120.862C409.543 118.079 409.503 115.664 409.628 112.9C410.37 109.502 410.946 106.453 411.522 103.404Z" fill="#2983A2"/>
<path d="M0 49H311V69H289V204H275V223H36V204H22V69H0V49Z" fill="#AA7941"/>
<path d="M289 69H22V76H289V69Z" fill="#523412"/>
<path d="M275 204H36V211H275V204Z" fill="#523412"/>
</svg>
