<svg width="502" height="324" viewBox="0 0 502 324" fill="none" xmlns="http://www.w3.org/2000/svg">
<path d="M215.823 183.264L215.822 183.264L215.714 183.431C215.822 183.263 215.821 183.263 215.82 183.262L215.814 183.258L215.787 183.241L215.683 183.174L215.271 182.909C215.089 182.792 214.863 182.647 214.593 182.474C214.325 182.301 214.015 182.102 213.663 181.875C212.254 180.969 210.186 179.638 207.551 177.94C202.283 174.544 194.747 169.681 185.682 163.809C167.55 152.066 143.298 136.293 118.812 120.169C94.3262 104.044 69.6096 87.5707 50.5492 74.4283C41.0185 67.8567 32.9058 62.1206 26.9445 57.6785C23.9633 55.4571 21.5249 53.5629 19.7179 52.0516C17.8907 50.5234 16.7613 49.4287 16.3417 48.7979C14.5132 46.0494 12.6642 41.6935 10.9173 36.6666C9.174 31.6505 7.54521 26.0052 6.14766 20.7034C4.7504 15.4027 3.5858 10.4512 2.77047 6.82456C2.36285 5.01141 2.04261 3.52981 1.82434 2.50178C1.7152 1.98777 1.63156 1.58718 1.57524 1.31526C1.54708 1.17929 1.52575 1.0755 1.51147 1.00579L1.49539 0.927008L1.49137 0.907234L1.49037 0.90233L1.49013 0.901133C1.49008 0.900884 1.49006 0.900776 1 1L1.49006 0.900776L0.5 1L0.5 321V321.5H1H501H501.5V321V1L500.51 0.900776L501 1C500.51 0.900776 500.51 0.900884 500.51 0.901132L500.51 0.902329L500.509 0.907234L500.505 0.927008L500.489 1.00579C500.474 1.0755 500.453 1.17929 500.425 1.31525C500.368 1.58718 500.285 1.98777 500.176 2.50178C499.957 3.52981 499.637 5.01141 499.23 6.82456C498.414 10.4512 497.25 15.4027 495.852 20.7034C494.455 26.0052 492.826 31.6505 491.083 36.6666C489.336 41.6935 487.487 46.0494 485.658 48.7979C485.239 49.4287 484.109 50.5234 482.282 52.0516C480.475 53.5629 478.037 55.4571 475.056 57.6785C469.094 62.1206 460.981 67.8567 451.451 74.4283C432.39 87.5707 407.674 104.044 383.188 120.169C358.702 136.293 334.45 152.066 316.318 163.809C307.253 169.681 299.717 174.544 294.449 177.94C291.814 179.638 289.746 180.969 288.337 181.875L287.906 182.153C287.409 182.472 287.014 182.726 286.729 182.909L286.317 183.174L286.213 183.241L286.186 183.258L286.18 183.262C286.178 183.263 286.178 183.264 286.448 183.684L286.178 183.264L286.177 183.264C282.444 185.668 276.872 189.258 270.608 192.245C264.336 195.235 257.42 197.597 251.001 197.587H250.999C244.58 197.597 237.664 195.235 231.392 192.245C225.128 189.258 219.556 185.668 215.823 183.264Z" fill="#7E809D" stroke="#5E6076"/>
<path d="M9.25871 274.8C16.7214 263.553 215.552 139.84 215.552 139.84C223.015 135.02 237.94 125.38 251 125.4C264.06 125.38 278.985 135.02 286.448 139.84C286.448 139.84 485.279 263.553 492.741 274.8C500.204 286.047 501 323 501 323H251H1C1 323 1.79602 286.047 9.25871 274.8Z" fill="#7E809D" stroke="black" stroke-opacity="0.25" stroke-width="1.60667"/>
</svg>
