<svg width="200" height="361" viewBox="0 0 200 361" fill="none" xmlns="http://www.w3.org/2000/svg">
<g clip-path="url(#clip0_220_1649)">
<path d="M0.744217 360.054C0.374957 359.684 0.0753652 298.37 0.0785778 223.799C0.0861369 78.5828 0.121263 77.4135 5.09463 62.6504C8.03215 53.9305 13.1632 44.0698 18.0938 37.6691C34.6486 16.1783 63.2192 2.28617 95.2768 0.139961C111.454 -0.943063 134.536 4.34369 151.733 13.071C165.765 20.1921 181.532 35.4964 188.483 48.7427C192.498 56.3941 196.755 69.7903 198.007 78.7155C198.895 85.0508 199.119 121.978 198.886 223.716L198.573 360.216L99.9942 360.47C45.7761 360.61 1.11355 360.423 0.744217 360.054Z" fill="#FDDA8B"/>
<path d="M0.744217 360.054C0.374957 359.684 0.0753652 298.37 0.0785778 223.799C0.0861369 78.5828 0.121263 77.4135 5.09463 62.6504C8.03215 53.9305 13.1632 44.0698 18.0938 37.6691C34.6486 16.1783 63.2192 2.28617 95.2768 0.139961C111.454 -0.943063 134.536 4.34369 151.733 13.071C165.765 20.1921 181.532 35.4964 188.483 48.7427C192.498 56.3941 196.755 69.7903 198.007 78.7155C198.895 85.0508 199.119 121.978 198.886 223.716L198.573 360.216L99.9942 360.47C45.7761 360.61 1.11355 360.423 0.744217 360.054ZM96.0727 316.216V291.715L61.3227 291.715L26.5726 291.714L26.8569 316.215L27.1407 340.716H61.6067H96.0727V316.216ZM187.289 316.215L187.573 291.714L145.823 291.715L104.073 291.715V316.216V340.716H145.539H187.005L187.289 316.215ZM96.0727 252.217V218.717H61.5727H27.0726V252.217V285.717H61.5727H96.0727V252.217ZM187.073 252.217V218.717H145.573H104.073V252.217V285.717H145.573H187.073V252.217ZM96.0727 179.717V146.717H61.5727H27.0726V179.717V212.717H61.5727H96.0727V179.717ZM187.073 179.717V146.717H145.573H104.073V179.717V212.717H145.573H187.073V179.717ZM96.0727 106.717V73.7169H67.2316H38.3905L35.8084 78.4669C28.8879 91.1974 27.0726 100.431 27.0726 122.901V139.717H61.5727H96.0727V106.717ZM186.818 119.967C186.303 97.9987 185.357 92.9574 179.503 80.9669L175.963 73.7169H140.044H104.126L103.849 106.717L103.573 139.718L145.427 139.717L187.282 139.717L186.818 119.967ZM96.0727 55.0777V42.4384L91.025 43.0362C83.9379 43.8755 67.2361 49.7741 60.4978 53.8175C57.382 55.6872 52.1697 59.5794 48.9149 62.4669L42.9971 67.7169H69.5348H96.0727V55.0777ZM167.378 64.1491C153.971 51.5799 133.418 43.076 113.823 41.9899L104.073 41.4495V54.5832V67.7169H137.628H171.184L167.378 64.1491Z" fill="#E5AF62"/>
<path d="M0.353639 220.467C0.740473 68.144 0.398228 76.9419 6.60962 59.717C16.5156 32.2472 39.4426 12.9816 72.9989 3.92982C81.4966 1.63758 84.4834 0.0811847 99.5726 0.0575626C114.926 0.0348855 117.523 1.55274 126.386 3.96397C145.822 9.25183 159.106 16.2453 171.191 27.5514C183.822 39.368 189.412 46.104 194.5 64.5002C194.5 64.5002 196.808 71.0002 198.548 79.217C199 90.0002 198.843 219.467 198.843 219.467L199.139 359.717H99.5693H0L0.353639 220.467ZM96.0726 321.717V291.717H52.0727H8.07262V321.717V351.717H52.0727H96.0726V321.717ZM191.073 321.717V291.717H147.073H103.073V321.717V351.717H147.073H191.073V321.717ZM96.0726 252.217V218.717H52.0727H8.07262V252.217V285.717H52.0727H96.0726V252.217ZM191.073 252.217V218.717H147.073H103.073V252.217V285.717H147.073H191.073V252.217ZM96.0726 179.217V145.717H52.0727H8.07262V179.217V212.717H52.0727H96.0726V179.217ZM191.073 179.217V145.717H147.073H103.073V179.217V212.717H147.073H191.073V179.217ZM95.836 106.967L95.5725 73.2169L82.0725 72.8931C74.6475 72.715 55.4387 72.8779 39.3862 73.2559C13.7667 73.8586 10.1051 74.1426 9.42471 75.5796C8.99838 76.48 8.48621 91.5042 8.28657 108.967L7.92377 140.717H52.0115H96.0992L95.836 106.967ZM190.895 107.799C190.718 89.6941 190.23 74.539 189.811 74.121C188.863 73.1739 109.222 72.2117 105.666 73.1043L103.073 73.7551V107.236V140.717H147.145H191.218L190.895 107.799ZM96.0726 38.0788V8.44074L89.6036 9.10355C72.7386 10.8314 50.4541 19.309 37.5358 28.9116C27.0825 36.6819 18.3673 48.3826 13.601 61.0455L11.0898 67.717H53.5812H96.0726V38.0788ZM187.552 65.4669C186.047 60.2989 180.746 50.0134 176.576 44.1695C163.366 25.6567 137.11 11.9604 109.323 9.08706L103.073 8.44074V38.0788V67.717H145.64H188.207L187.552 65.4669Z" fill="#8D5338"/>
</g>
<defs>
<clipPath id="clip0_220_1649">
<rect width="199.139" height="360.517" fill="white"/>
</clipPath>
</defs>
</svg>
