<svg width="550" height="700" viewBox="0 0 550 700" fill="none" xmlns="http://www.w3.org/2000/svg">
<g opacity="0.3">
<path d="M540 71.89H49" stroke="#998000" stroke-width="1.58" stroke-dasharray="3 3"/>
<path d="M540 95.59H49" stroke="#998000" stroke-width="1.58" stroke-dasharray="3 3"/>
<path d="M540 119.29H49" stroke="#998000" stroke-width="1.58" stroke-dasharray="3 3"/>
<path d="M540 142.99H49" stroke="#998000" stroke-width="1.58" stroke-dasharray="3 3"/>
<path d="M540 166.69H49" stroke="#998000" stroke-width="1.58" stroke-dasharray="3 3"/>
<path d="M540 190.39H49" stroke="#998000" stroke-width="1.58" stroke-dasharray="3 3"/>
<path d="M540 214.09H49" stroke="#998000" stroke-width="1.58" stroke-dasharray="3 3"/>
<path d="M540 237.79H49" stroke="#998000" stroke-width="1.58" stroke-dasharray="3 3"/>
<path d="M540 261.49H49" stroke="#998000" stroke-width="1.58" stroke-dasharray="3 3"/>
<path d="M540 285.19H49" stroke="#998000" stroke-width="1.58" stroke-dasharray="3 3"/>
<path d="M540 308.89H49" stroke="#998000" stroke-width="1.58" stroke-dasharray="3 3"/>
<path d="M540 332.59H49" stroke="#998000" stroke-width="1.58" stroke-dasharray="3 3"/>
<path d="M540 356.29H49" stroke="#998000" stroke-width="1.58" stroke-dasharray="3 3"/>
<path d="M540 379.99H49" stroke="#998000" stroke-width="1.58" stroke-dasharray="3 3"/>
<path d="M540 403.69H49" stroke="#998000" stroke-width="1.58" stroke-dasharray="3 3"/>
<path d="M540 427.39H49" stroke="#998000" stroke-width="1.58" stroke-dasharray="3 3"/>
<path d="M540 451.09H49" stroke="#998000" stroke-width="1.58" stroke-dasharray="3 3"/>
<path d="M540 474.79H49" stroke="#998000" stroke-width="1.58" stroke-dasharray="3 3"/>
<path d="M540 498.49H49" stroke="#998000" stroke-width="1.58" stroke-dasharray="3 3"/>
<path d="M540 522.19H49" stroke="#998000" stroke-width="1.58" stroke-dasharray="3 3"/>
<path d="M540 545.89H49" stroke="#998000" stroke-width="1.58" stroke-dasharray="3 3"/>
<path d="M540 569.59H49" stroke="#998000" stroke-width="1.58" stroke-dasharray="3 3"/>
<path d="M540 593.29H49" stroke="#998000" stroke-width="1.58" stroke-dasharray="3 3"/>
<path d="M540 616.99H49" stroke="#998000" stroke-width="1.58" stroke-dasharray="3 3"/>
<path d="M540 640.69H49" stroke="#998000" stroke-width="1.58" stroke-dasharray="3 3"/>
<path d="M540 664.39H49" stroke="#998000" stroke-width="1.58" stroke-dasharray="3 3"/>
<path d="M540 688.09H49" stroke="#998000" stroke-width="1.58" stroke-dasharray="3 3"/>
</g>
<path d="M30 0L30 700M38 0L38 700" stroke="#C6A99F" stroke-width="2"/>
</svg>
