<svg width="120" height="120" viewBox="0 0 120 120" fill="none" xmlns="http://www.w3.org/2000/svg">
<g clip-path="url(#clip0_427_790)">
<path d="M120 0L90 120L43.051 96.4996L120 0Z" fill="#DCD6D2"/>
<path d="M120 0L30 90L0 75L120 0Z" fill="#B9AEA3"/>
<path d="M30 90L35 120L43.3685 96.4996L119.998 0L30 90Z" fill="#A2837A"/>
<path d="M35 120L50 100L43.305 96.4998L35 120Z" fill="#88716A"/>
</g>
<path d="M52.2699 20.5795C52.988 20.354 53.5598 19.799 53.9855 18.9147C54.3828 18.8828 54.7224 18.945 55.0045 19.1014C55.2943 19.2556 55.4837 19.4989 55.5727 19.8312C55.6369 20.0707 55.5589 20.3359 55.3387 20.6268C55.1262 20.9157 54.8328 21.1807 54.4585 21.4218C54.0841 21.6629 53.7076 21.8341 53.329 21.9356C52.958 22.035 52.5396 22.0187 52.0736 21.8869C51.6055 21.7473 51.1925 21.5349 50.8345 21.2499C50.4765 20.9648 50.2551 20.6638 50.1702 20.347C50.0066 19.7366 49.9749 19.0618 50.075 18.3227C50.1808 17.5738 50.4247 16.908 50.8069 16.3252C51.1891 15.7424 51.6932 15.3672 52.3191 15.1994C52.7055 15.0959 53.0912 15.0671 53.4762 15.113C53.8612 15.1589 54.189 15.2699 54.4598 15.4458C54.7306 15.6217 54.8991 15.8333 54.9653 16.0806C55.0295 16.3201 54.9832 16.5644 54.8263 16.8135C54.6673 17.0549 54.4179 17.2211 54.0779 17.3122C53.9697 17.3412 53.8545 17.3597 53.7324 17.3675C53.4129 16.9479 53.1114 16.6726 52.8278 16.5415C52.4068 17.0104 52.1447 17.5776 52.0414 18.243C51.9381 18.9084 51.9693 19.5502 52.1349 20.1684C52.1597 20.2612 52.2047 20.3982 52.2699 20.5795ZM58.4363 20.5671C58.2122 20.6271 57.9435 20.6288 57.6301 20.5719C57.3223 20.5053 57.0481 20.409 56.8073 20.283C56.5644 20.1493 56.4253 20.0168 56.3901 19.8854C56.3549 19.7541 56.3221 19.415 56.2915 18.8683C56.261 18.3216 56.2415 17.9707 56.2331 17.8156C56.1792 16.6871 56.136 15.9077 56.1035 15.4774L56.0455 14.7973C55.9676 13.8574 55.9208 13.0956 55.9052 12.5117C55.8972 11.9258 55.9628 11.6142 56.1019 11.5769C56.2642 11.5335 56.4953 11.5461 56.7953 11.6148C57.1031 11.6814 57.3822 11.7805 57.6328 11.9121C57.8835 12.0438 58.0274 12.1791 58.0647 12.3182C58.1144 12.5037 58.1282 12.6946 58.1063 12.8909C58.09 13.0775 58.0535 13.3275 57.9967 13.6409C57.9372 13.9135 57.9019 14.1218 57.8907 14.2656C57.8661 14.7608 57.8775 15.4369 57.9249 16.2939C57.98 17.1487 58.0549 17.9693 58.1497 18.7556C58.3638 18.5657 58.529 18.4096 58.6454 18.2873C58.7596 18.1573 58.8888 17.9902 59.0328 17.7859C59.4039 17.8107 59.6985 17.9057 59.9167 18.0709C60.1405 18.2262 60.2876 18.4353 60.358 18.698C60.4077 18.8835 60.3281 19.1119 60.1192 19.3832C59.9082 19.6468 59.6388 19.8929 59.3108 20.1216C58.9828 20.3503 58.6913 20.4988 58.4363 20.5671ZM61.7846 12.3029C61.6378 12.3422 61.4446 12.3319 61.2049 12.2719C60.9708 12.2021 60.7586 12.1057 60.5683 11.9828C60.376 11.8521 60.2622 11.7211 60.227 11.5897C60.1711 11.3811 60.1693 11.158 60.2215 10.9203C60.2738 10.6827 60.3687 10.4958 60.5061 10.3596C60.573 10.3002 60.6915 10.2478 60.8615 10.2022C61.1397 10.1277 61.4344 10.115 61.7457 10.1641C62.0648 10.2111 62.2801 10.3191 62.3916 10.488C62.4174 10.5224 62.4406 10.5783 62.4613 10.6556C62.509 10.8333 62.5077 11.0449 62.4575 11.2902C62.4073 11.5356 62.3217 11.7573 62.2009 11.9553C62.0779 12.1456 61.9392 12.2615 61.7846 12.3029ZM62.8382 19.3876C62.6373 19.4414 62.3917 19.4368 62.1015 19.3738C61.817 19.301 61.5582 19.2005 61.3251 19.0725C61.0977 18.9347 60.9674 18.8039 60.9343 18.6803C60.897 18.5412 60.8923 18.323 60.9203 18.0256C60.9483 17.7282 60.9996 17.3169 61.0742 16.7917C61.1315 16.3871 61.1718 16.074 61.1952 15.8524C61.2166 15.623 61.2159 15.4659 61.1931 15.3809C61.1766 15.319 61.1203 15.2637 61.0244 15.2149C60.9342 15.1562 60.8011 15.0925 60.6253 15.0236C60.4201 14.9378 60.2647 14.8677 60.159 14.8132C60.061 14.7566 60.0006 14.6858 59.9778 14.6008C59.9343 14.4385 59.957 14.2296 60.0459 13.9738C60.1424 13.7161 60.2705 13.483 60.43 13.2746C60.5972 13.0642 60.7542 12.9393 60.9011 12.8999C61.0788 12.8523 61.2927 12.8778 61.5427 12.9764C61.8005 13.073 62.0318 13.2098 62.2366 13.3868C62.447 13.5541 62.5699 13.7034 62.6051 13.8347C62.6962 14.1747 62.7377 14.6854 62.7298 15.3667C62.7275 16.0381 62.6885 16.7733 62.6126 17.5721C62.7753 17.4374 62.9138 17.3051 63.028 17.1751C63.1423 17.0451 63.2971 16.8504 63.4927 16.5909C63.8715 16.6137 64.171 16.7115 64.3912 16.8844C64.6094 17.0495 64.7516 17.2557 64.8179 17.503C64.8717 17.7039 64.7932 17.9362 64.5822 18.1998C64.3789 18.4613 64.1095 18.7074 63.7737 18.9382C63.436 19.1612 63.1241 19.311 62.8382 19.3876ZM67.1663 16.588C67.8844 16.3625 68.4562 15.8076 68.8819 14.9233C69.2791 14.8914 69.6188 14.9536 69.9009 15.1099C70.1907 15.2641 70.3801 15.5074 70.4691 15.8397C70.5333 16.0792 70.4553 16.3445 70.2351 16.6354C70.0226 16.9242 69.7292 17.1892 69.3548 17.4303C68.9805 17.6714 68.604 17.8427 68.2253 17.9441C67.8544 18.0435 67.436 18.0273 66.97 17.8954C66.5019 17.7558 66.0888 17.5434 65.7309 17.2584C65.3729 16.9733 65.1515 16.6724 65.0666 16.3555C64.903 15.7451 64.8713 15.0703 64.9714 14.3312C65.0772 13.5823 65.3211 12.9165 65.7033 12.3337C66.0855 11.7509 66.5896 11.3757 67.2155 11.208C67.6019 11.1044 67.9875 11.0756 68.3725 11.1216C68.7576 11.1675 69.0854 11.2784 69.3562 11.4543C69.6269 11.6302 69.7955 11.8418 69.8617 12.0891C69.9259 12.3286 69.8796 12.573 69.7227 12.8221C69.5637 13.0634 69.3143 13.2297 68.9742 13.3208C68.8661 13.3497 68.7509 13.3682 68.6288 13.3761C68.3093 12.9564 68.0078 12.6811 67.7242 12.55C67.3032 13.019 67.0411 13.5861 66.9378 14.2516C66.8345 14.917 66.8656 15.5588 67.0313 16.177C67.0561 16.2697 67.1011 16.4067 67.1663 16.588ZM72.8742 12.4373C73.2374 11.5366 73.5355 10.8562 73.7684 10.3963C73.9992 9.92861 74.2421 9.66061 74.4972 9.59228C74.6749 9.54466 74.8793 9.581 75.1103 9.70131C75.349 9.81955 75.5623 9.98188 75.7501 10.1883C75.9359 10.387 76.0505 10.5675 76.094 10.7298C76.212 11.1702 76.1561 11.6573 75.9264 12.1909C75.7024 12.7147 75.3742 13.2209 74.9419 13.7095C75.1358 13.8149 75.2972 13.8917 75.4261 13.94C75.555 13.9883 75.6874 14.019 75.8235 14.0323C76.0424 13.8908 76.3064 13.671 76.6158 13.3727C76.8849 13.4497 77.1061 13.5644 77.2794 13.7167C77.4528 13.869 77.5643 14.0379 77.614 14.2234C77.7009 14.5479 77.6266 14.8577 77.3909 15.1528C77.1532 15.4401 76.8141 15.6428 76.3736 15.7608C76.0104 15.8581 75.6463 15.8439 75.2813 15.718C74.922 15.5824 74.5942 15.3638 74.2981 15.0622C74.0076 14.7508 73.7717 14.3957 73.5903 13.9971L73.7143 13.5787C74.0937 13.2949 74.3616 13.0119 74.5179 12.7298C74.682 12.4457 74.7402 12.2147 74.6926 12.037C74.6718 11.9597 74.6331 11.908 74.5764 11.8818C74.5254 11.8458 74.4651 11.8371 74.3955 11.8557C74.2255 11.9013 74.0479 12.0731 73.8628 12.3712C73.6755 12.6615 73.4259 13.1052 73.1138 13.7024C73.1081 13.7122 73.0462 13.8364 72.9279 14.0752C73.0663 14.6841 73.1574 15.256 73.2013 15.7909C73.2452 16.3257 73.1861 16.6149 73.0238 16.6584C72.8306 16.7101 72.5889 16.7045 72.2987 16.6415C72.0085 16.5784 71.7469 16.4829 71.5138 16.3549C71.2864 16.217 71.155 16.0824 71.1198 15.9511C71.095 15.8583 71.0835 15.6916 71.0852 15.451C71.0849 15.2026 71.09 14.9279 71.1005 14.627C71.1368 13.5571 71.1354 12.6092 71.0963 11.7831C71.0731 11.3256 71.0341 10.8556 70.9794 10.3733C70.922 9.72616 70.8874 9.22608 70.8756 8.8731C70.8639 8.52011 70.8859 8.21604 70.9418 7.96089C71.0033 7.69594 71.1229 7.53965 71.3007 7.49203C71.432 7.45683 71.6469 7.48621 71.9454 7.58015C72.2496 7.6643 72.5301 7.78378 72.7869 7.93859C73.0416 8.08566 73.1866 8.22488 73.2218 8.35625C73.2528 8.47216 73.2455 8.61492 73.1999 8.78451C73.1599 8.94431 73.0823 9.18042 72.9673 9.49285C72.9431 9.55729 72.8987 9.68515 72.834 9.87641C72.777 10.0656 72.7399 10.2205 72.7225 10.3411C72.6898 10.5901 72.6621 10.9039 72.6394 11.2827C72.6244 11.6594 72.6227 12.0243 72.6345 12.3773L72.8742 12.4373ZM83.1312 9.77589C83.5263 8.80867 83.8403 8.09508 84.0732 7.63513C84.304 7.16746 84.5237 6.90566 84.7324 6.84976C84.8792 6.81042 85.0658 6.82669 85.2921 6.89856C85.5261 6.96837 85.7344 7.06577 85.917 7.19078C86.1052 7.30598 86.2079 7.41099 86.225 7.50579C86.2691 7.70104 86.2979 7.91693 86.3116 8.15345C86.3253 8.38997 86.3331 8.68189 86.3351 9.02921C86.757 8.03825 87.0957 7.2932 87.3512 6.79406C87.6144 6.29285 87.8504 6.01429 88.059 5.95839C88.2058 5.91905 88.4032 5.94483 88.6512 6.03575C88.8992 6.12667 89.1225 6.24905 89.3211 6.40289C89.5253 6.54694 89.6409 6.66919 89.6678 6.76965C89.6953 6.90308 89.7012 7.14167 89.6857 7.48541C89.6701 7.82915 89.64 8.2886 89.5953 8.86376C89.5303 9.61003 89.4951 10.1123 89.4897 10.3704C89.7018 10.1728 89.8621 10.0139 89.9707 9.8937C90.0849 9.7637 90.2141 9.59658 90.3581 9.39234C90.7292 9.41715 91.0277 9.5111 91.2536 9.67418C91.4774 9.82954 91.6246 10.0386 91.695 10.3013C91.7446 10.4868 91.6612 10.7162 91.4446 10.9896C91.2336 11.2532 90.9641 11.4993 90.6361 11.728C90.3081 11.9567 90.0166 12.1052 89.7616 12.1735C89.5916 12.219 89.3721 12.2033 89.103 12.1264C88.8339 12.0494 88.5905 11.9448 88.3729 11.8126C88.1532 11.6727 88.0299 11.5525 88.003 11.4521C87.9864 11.3903 87.9857 11.2331 88.0009 10.9806C88.014 10.7203 88.0207 10.5446 88.0211 10.4534C88.0437 9.95038 88.0535 9.55434 88.0506 9.26524C88.0533 8.96635 88.0371 8.75122 88.0019 8.61985C87.9771 8.52713 87.9453 8.48594 87.9067 8.49629C87.5821 8.58325 87.1514 9.27843 86.6144 10.5818C86.6127 10.8225 86.6303 11.1201 86.6673 11.4746C86.7071 11.994 86.7233 12.3789 86.7158 12.6293C86.7063 12.8721 86.6436 13.009 86.5277 13.04C86.3654 13.0835 86.1459 13.0678 85.8691 12.9929C85.5922 12.918 85.3412 12.8155 85.1158 12.6854C84.8884 12.5475 84.7591 12.4207 84.7281 12.3047C84.7074 12.2275 84.7116 11.9033 84.7408 11.3323C84.7619 10.8546 84.7738 10.4663 84.7765 10.1674C84.7772 9.86075 84.7589 9.6379 84.7216 9.4988C84.6968 9.40608 84.6612 9.36592 84.6148 9.37835C84.3057 9.46117 83.875 10.1563 83.3226 11.4639C83.3248 11.5958 83.3314 11.7597 83.3425 11.9555C83.3613 12.1492 83.3733 12.2868 83.3785 12.3682C83.4157 12.8469 83.4288 13.2202 83.4177 13.4882C83.4124 13.7464 83.3517 13.891 83.2358 13.9221C83.0349 13.9759 82.7894 13.9713 82.4992 13.9083C82.2146 13.8354 81.9558 13.735 81.7227 13.607C81.4953 13.4691 81.365 13.3384 81.3319 13.2148C81.2946 13.0757 81.29 12.8574 81.318 12.56C81.346 12.2627 81.3972 11.8514 81.4719 11.3262C81.5291 10.9216 81.5694 10.6085 81.5929 10.3868C81.6142 10.1575 81.6135 10.0003 81.5908 9.91533C81.5742 9.85351 81.518 9.79818 81.422 9.74934C81.3318 9.6907 81.1988 9.62696 81.023 9.55811C80.8178 9.4723 80.6623 9.40214 80.5566 9.34765C80.4586 9.29108 80.3982 9.22029 80.3755 9.13529C80.332 8.97302 80.3547 8.76402 80.4435 8.50832C80.5401 8.25054 80.6681 8.01746 80.8276 7.80907C80.9948 7.59862 81.1519 7.47372 81.2987 7.43438C81.461 7.3909 81.6661 7.41462 81.9141 7.50554C82.1698 7.59438 82.4008 7.71469 82.6071 7.86646C82.8191 8.00844 82.9385 8.12966 82.9654 8.23011C83.0151 8.41557 83.053 8.64974 83.0791 8.93262C83.113 9.21344 83.1303 9.49453 83.1312 9.77589ZM95.109 10.7407C94.7381 10.8401 94.3196 10.8238 93.8536 10.6919C93.3855 10.5523 92.9725 10.34 92.6145 10.0549C92.2566 9.76986 92.0351 9.46891 91.9502 9.15209C91.7991 8.58799 91.7648 7.9346 91.8474 7.19191C91.9377 6.44716 92.1565 5.77981 92.5036 5.18986C92.8487 4.59219 93.3187 4.21363 93.9137 4.0542C94.3387 3.94032 94.7461 3.93056 95.1358 4.02491C95.5332 4.11719 95.8658 4.27654 96.1335 4.50297C96.4012 4.72939 96.5703 4.97397 96.6407 5.2367C96.7276 5.56125 96.6668 5.92128 96.458 6.31678C96.2472 6.70456 95.9111 7.08862 95.4499 7.46897C94.9865 7.84159 94.4322 8.1682 93.7868 8.44879C93.8039 8.54359 93.8373 8.68372 93.887 8.86918C93.9491 9.101 94.0034 9.2728 94.05 9.38457C94.426 9.2424 94.7805 9.03559 95.1136 8.76413C95.4467 8.49267 95.7959 8.14234 96.1613 7.71316C96.4875 7.72513 96.7548 7.81087 96.9632 7.97037C97.1716 8.12988 97.313 8.34872 97.3876 8.62691C97.4497 8.85873 97.3678 9.12499 97.142 9.4257C96.9217 9.7166 96.6206 9.98365 96.2385 10.2268C95.8564 10.47 95.4799 10.6413 95.109 10.7407ZM93.7277 7.53287C94.1535 7.23656 94.4897 6.9146 94.7361 6.56697C94.9825 6.21935 95.0809 5.95281 95.0312 5.76735C94.9732 5.55098 94.7832 5.44454 94.4611 5.44802C94.2254 5.74306 94.0437 6.06922 93.9158 6.4265C93.7956 6.7817 93.7329 7.15049 93.7277 7.53287Z" fill="#4D3926"/>
<defs>
<clipPath id="clip0_427_790">
<rect width="120" height="120" fill="white"/>
</clipPath>
</defs>
</svg>
